<svg width="222" height="103" viewBox="0 0 222 103" fill="none" xmlns="http://www.w3.org/2000/svg">
<g opacity="0.8" clip-path="url(#clip0_54_275)">
<path d="M172.576 80.3782H50.1525C47.9035 80.3782 46.0803 82.1962 46.0803 84.4388V85.0478C46.0803 87.2904 47.9035 89.1084 50.1525 89.1084H172.576C174.825 89.1084 176.648 87.2904 176.648 85.0478V84.4388C176.648 82.1962 174.825 80.3782 172.576 80.3782Z" fill="white"/>
<path d="M36.5213 79.1709V93.8851C36.5213 96.0437 35.8676 98.0312 34.7638 99.5913C34.0887 100.553 33.2421 101.354 32.2776 101.942C31.5275 102.391 30.7131 102.722 29.845 102.883C29.4271 102.957 28.9984 103 28.5591 103H18.8179C18.3678 103 17.9392 102.957 17.5212 102.883C16.6532 102.712 15.828 102.402 15.0886 101.942C14.1241 101.344 13.2775 100.542 12.6024 99.5807C11.4986 98.0205 10.8557 96.0437 10.8557 93.8851V79.1709C10.8557 74.1379 14.4242 70.0559 18.8286 70.0559H28.5698C32.9742 70.0559 36.5427 74.1379 36.5427 79.1709H36.5213Z" fill="white"/>
<path d="M15.0779 87.431V101.953C14.1135 101.355 13.2669 100.553 12.5917 99.5914V87.4417C12.5917 86.7899 13.0525 86.2556 13.6312 86.2556H14.0492C14.6171 86.2556 15.0779 86.7899 15.0779 87.4417V87.431Z" fill="#9B9B9B"/>
<path d="M15.0779 87.431V101.953C14.1135 101.355 13.2669 100.553 12.5917 99.5914V87.4417C12.5917 86.7899 13.0525 86.2556 13.6312 86.2556H14.0492C14.6171 86.2556 15.0779 86.7899 15.0779 87.4417V87.431Z" fill="#9B9B9B"/>
<path d="M19.9968 87.431V103.011H18.8072C18.3572 103.011 17.9285 102.968 17.5106 102.893V87.4417C17.5106 86.7899 17.9714 86.2556 18.55 86.2556H18.968C19.536 86.2556 20.0075 86.7899 20.0075 87.4417L19.9968 87.431Z" fill="#9B9B9B"/>
<path d="M19.9968 87.431V103.011H18.8072C18.3572 103.011 17.9285 102.968 17.5106 102.893V87.4417C17.5106 86.7899 17.9714 86.2556 18.55 86.2556H18.968C19.536 86.2556 20.0075 86.7899 20.0075 87.4417L19.9968 87.431Z" fill="#9B9B9B"/>
<path d="M24.9263 87.431V103.011H22.4401V87.431C22.4401 86.7792 22.8901 86.2449 23.4795 86.2449H23.8975C24.4655 86.2449 24.937 86.7792 24.937 87.431H24.9263Z" fill="#9B9B9B"/>
<path d="M24.9263 87.431V103.011H22.4401V87.431C22.4401 86.7792 22.8901 86.2449 23.4795 86.2449H23.8975C24.4655 86.2449 24.937 86.7792 24.937 87.431H24.9263Z" fill="#9B9B9B"/>
<path d="M29.845 87.4309V102.883C29.4271 102.957 28.9985 103 28.5591 103H27.3696V87.4203C27.3696 86.7684 27.8304 86.2341 28.4091 86.2341H28.827C29.395 86.2341 29.8665 86.7684 29.8665 87.4203L29.845 87.4309Z" fill="#9B9B9B"/>
<path d="M29.845 87.4309V102.883C29.4271 102.957 28.9985 103 28.5591 103H27.3696V87.4203C27.3696 86.7684 27.8304 86.2341 28.4091 86.2341H28.827C29.395 86.2341 29.8665 86.7684 29.8665 87.4203L29.845 87.4309Z" fill="#9B9B9B"/>
<path d="M34.7639 87.431V99.6021C34.0888 100.564 33.2422 101.365 32.2777 101.953V87.431C32.2777 86.7792 32.7492 86.2449 33.3172 86.2449H33.7351C34.3138 86.2449 34.7746 86.7792 34.7746 87.431H34.7639Z" fill="#9B9B9B"/>
<path d="M34.7639 87.431V99.6021C34.0888 100.564 33.2422 101.365 32.2777 101.953V87.431C32.2777 86.7792 32.7492 86.2449 33.3172 86.2449H33.7351C34.3138 86.2449 34.7746 86.7792 34.7746 87.431H34.7639Z" fill="#9B9B9B"/>
<path d="M211.209 79.1709V93.8851C211.209 96.0437 210.555 98.0312 209.451 99.5913C208.776 100.553 207.929 101.354 206.965 101.942C206.215 102.391 205.4 102.722 204.532 102.883C204.114 102.957 203.686 103 203.246 103H193.505C193.055 103 192.626 102.957 192.209 102.883C191.341 102.712 190.515 102.402 189.776 101.942C188.811 101.344 187.965 100.542 187.29 99.5807C186.186 98.0205 185.543 96.0437 185.543 93.8851V79.1709C185.543 74.1379 189.112 70.0559 193.516 70.0559H203.257C207.662 70.0559 211.23 74.1379 211.23 79.1709H211.209Z" fill="white"/>
<path d="M189.765 87.431V101.953C188.801 101.355 187.954 100.553 187.279 99.5914V87.4417C187.279 86.7899 187.74 86.2556 188.318 86.2556H188.736C189.304 86.2556 189.765 86.7899 189.765 87.4417V87.431Z" fill="#9B9B9B"/>
<path d="M189.765 87.431V101.953C188.801 101.355 187.954 100.553 187.279 99.5914V87.4417C187.279 86.7899 187.74 86.2556 188.318 86.2556H188.736C189.304 86.2556 189.765 86.7899 189.765 87.4417V87.431Z" fill="#9B9B9B"/>
<path d="M194.684 87.431V103.011H193.494C193.044 103.011 192.616 102.968 192.198 102.893V87.4417C192.198 86.7899 192.659 86.2556 193.237 86.2556H193.655C194.223 86.2556 194.695 86.7899 194.695 87.4417L194.684 87.431Z" fill="#9B9B9B"/>
<path d="M194.684 87.431V103.011H193.494C193.044 103.011 192.616 102.968 192.198 102.893V87.4417C192.198 86.7899 192.659 86.2556 193.237 86.2556H193.655C194.223 86.2556 194.695 86.7899 194.695 87.4417L194.684 87.431Z" fill="#9B9B9B"/>
<path d="M199.614 87.431V103.011H197.127V87.431C197.127 86.7792 197.577 86.2449 198.167 86.2449H198.585C199.153 86.2449 199.624 86.7792 199.624 87.431H199.614Z" fill="#9B9B9B"/>
<path d="M199.614 87.431V103.011H197.127V87.431C197.127 86.7792 197.577 86.2449 198.167 86.2449H198.585C199.153 86.2449 199.624 86.7792 199.624 87.431H199.614Z" fill="#9B9B9B"/>
<path d="M204.532 87.4309V102.883C204.114 102.957 203.686 103 203.246 103H202.057V87.4203C202.057 86.7684 202.518 86.2341 203.096 86.2341H203.514C204.082 86.2341 204.554 86.7684 204.554 87.4203L204.532 87.4309Z" fill="#9B9B9B"/>
<path d="M204.532 87.4309V102.883C204.114 102.957 203.686 103 203.246 103H202.057V87.4203C202.057 86.7684 202.518 86.2341 203.096 86.2341H203.514C204.082 86.2341 204.554 86.7684 204.554 87.4203L204.532 87.4309Z" fill="#9B9B9B"/>
<path d="M209.451 87.431V99.6021C208.776 100.564 207.929 101.365 206.965 101.953V87.431C206.965 86.7792 207.436 86.2449 208.004 86.2449H208.422C209.001 86.2449 209.462 86.7792 209.462 87.431H209.451Z" fill="#9B9B9B"/>
<path d="M209.451 87.431V99.6021C208.776 100.564 207.929 101.365 206.965 101.953V87.431C206.965 86.7792 207.436 86.2449 208.004 86.2449H208.422C209.001 86.2449 209.462 86.7792 209.462 87.431H209.451Z" fill="#9B9B9B"/>
<path d="M174.451 30.5292V47.6264H170.476V32.474C170.476 16.7018 157.638 3.9003 141.809 3.9003H82.891C82.2158 3.9003 81.5514 3.92167 80.8977 3.9751C68.4453 4.81928 58.1791 13.603 55.1463 25.2932C54.8141 26.5648 54.5677 27.8578 54.4283 29.1935C54.2997 30.2727 54.2354 31.3627 54.2354 32.474V47.6264H50.249V30.5292C50.249 13.6671 63.9552 0 80.8656 0H143.835C160.745 0 174.451 13.6671 174.451 30.5292Z" fill="white"/>
<path d="M170.476 47.6265H54.2355V48.4813H170.476V47.6265Z" fill="#07031A"/>
<path d="M113.968 3.8042H111.943V8.34565H113.968V3.8042Z" fill="white"/>
<path d="M119.541 5.81323H106.371V9.35022H119.541V5.81323Z" fill="white"/>
<path d="M216.556 83.5519H5.44388C-0.139341 78.7861 -3.3221 47.8187 5.44388 31.1489C23.7474 6.53965 47.6449 25.5924 47.6449 25.5924C49.7346 24.2032 53.7211 23.0385 59.0257 22.0767C61.6297 21.6066 64.5446 21.1898 67.7059 20.8158C71.5745 20.367 75.8182 19.9823 80.319 19.6938C82.816 19.5228 85.3879 19.3839 88.0241 19.2557C90.8854 19.1275 93.8324 19.0206 96.8115 18.9351C99.587 18.8496 102.395 18.7962 105.213 18.7642C107.249 18.7535 109.285 18.7321 111.321 18.7321C112.854 18.7321 114.376 18.7321 115.908 18.7535C143.653 18.9886 170.069 21.3608 174.366 25.5817C174.366 25.5817 198.253 6.52896 216.567 31.1383C225.322 47.808 222.139 78.7754 216.567 83.5412L216.556 83.5519Z" fill="white"/>
<path d="M109.853 18.7749V83.552H101.452V18.9459C104.227 18.8604 107.035 18.807 109.853 18.7749Z" fill="white"/>
<path d="M120.548 18.7643V83.5413H115.962V18.7429C117.494 18.7429 119.016 18.7429 120.548 18.7643Z" fill="white"/>
<path d="M153.083 37.5071H69.2277C64.4633 37.5071 60.601 41.3583 60.601 46.1091V60.6631C60.601 65.4139 64.4633 69.2651 69.2277 69.2651H153.083C157.848 69.2651 161.71 65.4139 161.71 60.6631V46.1091C161.71 41.3583 157.848 37.5071 153.083 37.5071Z" fill="white"/>
<path d="M153.083 70.7825H69.2384C63.6337 70.7825 59.0793 66.2411 59.0793 60.6524V46.1091C59.0793 40.5205 63.6337 35.979 69.2384 35.979H153.094C158.699 35.979 163.253 40.5205 163.253 46.1091V60.6524C163.253 66.2411 158.699 70.7825 153.094 70.7825H153.083ZM69.2277 39.0244C65.3162 39.0244 62.1227 42.1981 62.1227 46.1091V60.6524C62.1227 64.5527 65.3055 67.7371 69.2277 67.7371H153.083C156.995 67.7371 160.188 64.5634 160.188 60.6524V46.1091C160.188 42.2088 157.005 39.0244 153.083 39.0244H69.2384H69.2277Z" fill="#9B9B9B"/>
<path d="M73.7393 46.6433C73.7393 45.5456 72.8493 44.6558 71.7514 44.6558C70.6535 44.6558 69.7635 45.5456 69.7635 46.6433V60.1287C69.7635 61.2264 70.6535 62.1163 71.7514 62.1163C72.8493 62.1163 73.7393 61.2264 73.7393 60.1287V46.6433Z" fill="#9B9B9B"/>
<path d="M81.6158 46.6433C81.6158 45.5456 80.7258 44.6558 79.6279 44.6558C78.53 44.6558 77.64 45.5456 77.64 46.6433V60.1287C77.64 61.2264 78.53 62.1163 79.6279 62.1163C80.7258 62.1163 81.6158 61.2264 81.6158 60.1287V46.6433Z" fill="#9B9B9B"/>
<path d="M89.503 46.6433C89.503 45.5456 88.613 44.6558 87.5151 44.6558C86.4173 44.6558 85.5273 45.5456 85.5273 46.6433V60.1287C85.5273 61.2264 86.4173 62.1163 87.5151 62.1163C88.613 62.1163 89.503 61.2264 89.503 60.1287V46.6433Z" fill="#9B9B9B"/>
<path d="M97.3795 46.6433C97.3795 45.5456 96.4895 44.6558 95.3917 44.6558C94.2938 44.6558 93.4038 45.5456 93.4038 46.6433V60.1287C93.4038 61.2264 94.2938 62.1163 95.3917 62.1163C96.4895 62.1163 97.3795 61.2264 97.3795 60.1287V46.6433Z" fill="#9B9B9B"/>
<path d="M105.267 46.6433C105.267 45.5456 104.377 44.6558 103.279 44.6558C102.181 44.6558 101.291 45.5456 101.291 46.6433V60.1287C101.291 61.2264 102.181 62.1163 103.279 62.1163C104.377 62.1163 105.267 61.2264 105.267 60.1287V46.6433Z" fill="#9B9B9B"/>
<path d="M113.143 46.6433C113.143 45.5456 112.253 44.6558 111.155 44.6558C110.058 44.6558 109.168 45.5456 109.168 46.6433V60.1287C109.168 61.2264 110.058 62.1163 111.155 62.1163C112.253 62.1163 113.143 61.2264 113.143 60.1287V46.6433Z" fill="#9B9B9B"/>
<path d="M121.031 46.6433C121.031 45.5456 120.141 44.6558 119.043 44.6558C117.945 44.6558 117.055 45.5456 117.055 46.6433V60.1287C117.055 61.2264 117.945 62.1163 119.043 62.1163C120.141 62.1163 121.031 61.2264 121.031 60.1287V46.6433Z" fill="#9B9B9B"/>
<path d="M128.907 46.6433C128.907 45.5456 128.017 44.6558 126.919 44.6558C125.821 44.6558 124.931 45.5456 124.931 46.6433V60.1287C124.931 61.2264 125.821 62.1163 126.919 62.1163C128.017 62.1163 128.907 61.2264 128.907 60.1287V46.6433Z" fill="#9B9B9B"/>
<path d="M136.794 46.6433C136.794 45.5456 135.904 44.6558 134.806 44.6558C133.709 44.6558 132.819 45.5456 132.819 46.6433V60.1287C132.819 61.2264 133.709 62.1163 134.806 62.1163C135.904 62.1163 136.794 61.2264 136.794 60.1287V46.6433Z" fill="#9B9B9B"/>
<path d="M144.671 46.6433C144.671 45.5456 143.781 44.6558 142.683 44.6558C141.585 44.6558 140.695 45.5456 140.695 46.6433V60.1287C140.695 61.2264 141.585 62.1163 142.683 62.1163C143.781 62.1163 144.671 61.2264 144.671 60.1287V46.6433Z" fill="#9B9B9B"/>
<path d="M152.558 46.6433C152.558 45.5456 151.668 44.6558 150.57 44.6558C149.472 44.6558 148.582 45.5456 148.582 46.6433V60.1287C148.582 61.2264 149.472 62.1163 150.57 62.1163C151.668 62.1163 152.558 61.2264 152.558 60.1287V46.6433Z" fill="#9B9B9B"/>
<path d="M23.2009 55.363C31.3329 55.363 37.9252 48.7895 37.9252 40.6808C37.9252 32.572 31.3329 25.9985 23.2009 25.9985C15.0689 25.9985 8.47662 32.572 8.47662 40.6808C8.47662 48.7895 15.0689 55.363 23.2009 55.363Z" fill="#9B9B9B"/>
<path d="M23.2009 51.3985C29.1371 51.3985 33.9494 46.6 33.9494 40.6807C33.9494 34.7614 29.1371 29.9629 23.2009 29.9629C17.2647 29.9629 12.4524 34.7614 12.4524 40.6807C12.4524 46.6 17.2647 51.3985 23.2009 51.3985Z" fill="white"/>
<path d="M17.832 71.4129C15.9888 71.4129 14.4778 69.9169 14.4778 68.0683C14.4778 66.2196 15.9781 64.7236 17.832 64.7236H28.5805C30.4237 64.7236 31.9347 66.2196 31.9347 68.0683C31.9347 69.9169 30.4344 71.4129 28.5805 71.4129H17.832Z" fill="white"/>
<path d="M197.888 55.363C206.02 55.363 212.612 48.7895 212.612 40.6808C212.612 32.572 206.02 25.9985 197.888 25.9985C189.756 25.9985 183.164 32.572 183.164 40.6808C183.164 48.7895 189.756 55.363 197.888 55.363Z" fill="#9B9B9B"/>
<path d="M197.888 51.3985C203.824 51.3985 208.637 46.6 208.637 40.6807C208.637 34.7614 203.824 29.9629 197.888 29.9629C191.952 29.9629 187.14 34.7614 187.14 40.6807C187.14 46.6 191.952 51.3985 197.888 51.3985Z" fill="white"/>
<path d="M192.519 71.4129C190.676 71.4129 189.165 69.9169 189.165 68.0683C189.165 66.2196 190.665 64.7236 192.519 64.7236H203.268C205.111 64.7236 206.622 66.2196 206.622 68.0683C206.622 69.9169 205.122 71.4129 203.268 71.4129H192.519Z" fill="white"/>
</g>
<defs>
<clipPath id="clip0_54_275">
<rect width="222" height="103" fill="white"/>
</clipPath>
</defs>
</svg>
