<svg width="113" height="52" viewBox="0 0 113 52" fill="none" xmlns="http://www.w3.org/2000/svg">
<g clip-path="url(#clip0_54_210)">
<path d="M87.8428 40.5751H25.5281C24.3833 40.5751 23.4553 41.4928 23.4553 42.6249V42.9324C23.4553 44.0644 24.3833 44.9822 25.5281 44.9822H87.8428C88.9876 44.9822 89.9156 44.0644 89.9156 42.9324V42.6249C89.9156 41.4928 88.9876 40.5751 87.8428 40.5751Z" fill="#4F8A8B"/>
<path d="M18.5897 39.9656V47.3934C18.5897 48.483 18.257 49.4863 17.6951 50.2739C17.3515 50.7593 16.9205 51.1639 16.4296 51.4606C16.0478 51.6871 15.6332 51.8544 15.1914 51.9353C14.9787 51.973 14.7605 51.9946 14.5368 51.9946H9.57849C9.34939 51.9946 9.13121 51.973 8.91847 51.9353C8.47664 51.849 8.05663 51.6925 7.68025 51.4606C7.18932 51.1585 6.7584 50.7539 6.41475 50.2685C5.85292 49.4809 5.52563 48.483 5.52563 47.3934V39.9656C5.52563 37.4249 7.34206 35.3643 9.58395 35.3643H14.5423C16.7842 35.3643 18.6006 37.4249 18.6006 39.9656H18.5897Z" fill="#4F8A8B"/>
<path d="M7.6748 44.1353V51.466C7.18387 51.1639 6.75295 50.7594 6.4093 50.2739V44.1407C6.4093 43.8116 6.64385 43.5419 6.93841 43.5419H7.15114C7.44024 43.5419 7.6748 43.8116 7.6748 44.1407V44.1353Z" fill="#3A7777"/>
<path d="M7.6748 44.1353V51.466C7.18387 51.1639 6.75295 50.7594 6.4093 50.2739V44.1407C6.4093 43.8116 6.64385 43.5419 6.93841 43.5419H7.15114C7.44024 43.5419 7.6748 43.8116 7.6748 44.1407V44.1353Z" fill="#3A7777"/>
<path d="M10.1785 44.1353V52H9.57305C9.34395 52 9.12576 51.9784 8.91302 51.9407V44.1407C8.91302 43.8116 9.14758 43.5419 9.44213 43.5419H9.65487C9.94397 43.5419 10.184 43.8116 10.184 44.1407L10.1785 44.1353Z" fill="#3A7777"/>
<path d="M10.1785 44.1353V52H9.57305C9.34395 52 9.12576 51.9784 8.91302 51.9407V44.1407C8.91302 43.8116 9.14758 43.5419 9.44213 43.5419H9.65487C9.94397 43.5419 10.184 43.8116 10.184 44.1407L10.1785 44.1353Z" fill="#3A7777"/>
<path d="M12.6877 44.1353V52H11.4222V44.1353C11.4222 43.8062 11.6513 43.5365 11.9513 43.5365H12.164C12.4531 43.5365 12.6931 43.8062 12.6931 44.1353H12.6877Z" fill="#3A7777"/>
<path d="M12.6877 44.1353V52H11.4222V44.1353C11.4222 43.8062 11.6513 43.5365 11.9513 43.5365H12.164C12.4531 43.5365 12.6931 43.8062 12.6931 44.1353H12.6877Z" fill="#3A7777"/>
<path d="M15.1914 44.1353V51.9353C14.9786 51.973 14.7605 51.9946 14.5368 51.9946H13.9313V44.1299C13.9313 43.8008 14.1659 43.5311 14.4604 43.5311H14.6732C14.9623 43.5311 15.2023 43.8008 15.2023 44.1299L15.1914 44.1353Z" fill="#3A7777"/>
<path d="M15.1914 44.1353V51.9353C14.9786 51.973 14.7605 51.9946 14.5368 51.9946H13.9313V44.1299C13.9313 43.8008 14.1659 43.5311 14.4604 43.5311H14.6732C14.9623 43.5311 15.2023 43.8008 15.2023 44.1299L15.1914 44.1353Z" fill="#3A7777"/>
<path d="M17.6951 44.1353V50.2793C17.3515 50.7647 16.9206 51.1693 16.4296 51.466V44.1353C16.4296 43.8062 16.6696 43.5365 16.9587 43.5365H17.1715C17.466 43.5365 17.7006 43.8062 17.7006 44.1353H17.6951Z" fill="#3A7777"/>
<path d="M17.6951 44.1353V50.2793C17.3515 50.7647 16.9206 51.1693 16.4296 51.466V44.1353C16.4296 43.8062 16.6696 43.5365 16.9587 43.5365H17.1715C17.466 43.5365 17.7006 43.8062 17.7006 44.1353H17.6951Z" fill="#3A7777"/>
<path d="M107.507 39.9656V47.3934C107.507 48.483 107.174 49.4863 106.613 50.2739C106.269 50.7593 105.838 51.1639 105.347 51.4606C104.965 51.6871 104.551 51.8544 104.109 51.9353C103.896 51.973 103.678 51.9946 103.454 51.9946H98.4959C98.2668 51.9946 98.0486 51.973 97.8359 51.9353C97.3941 51.849 96.974 51.6925 96.5977 51.4606C96.1067 51.1585 95.6758 50.7539 95.3322 50.2685C94.7703 49.4809 94.4431 48.483 94.4431 47.3934V39.9656C94.4431 37.4249 96.2595 35.3643 98.5014 35.3643H103.46C105.702 35.3643 107.518 37.4249 107.518 39.9656H107.507Z" fill="#4F8A8B"/>
<path d="M96.5922 44.1353V51.466C96.1013 51.1639 95.6703 50.7594 95.3267 50.2739V44.1407C95.3267 43.8116 95.5612 43.5419 95.8558 43.5419H96.0685C96.3576 43.5419 96.5922 43.8116 96.5922 44.1407V44.1353Z" fill="#3A7777"/>
<path d="M96.5922 44.1353V51.466C96.1013 51.1639 95.6703 50.7594 95.3267 50.2739V44.1407C95.3267 43.8116 95.5612 43.5419 95.8558 43.5419H96.0685C96.3576 43.5419 96.5922 43.8116 96.5922 44.1407V44.1353Z" fill="#3A7777"/>
<path d="M99.0959 44.1353V52H98.4904C98.2613 52 98.0431 51.9784 97.8304 51.9407V44.1407C97.8304 43.8116 98.065 43.5419 98.3595 43.5419H98.5723C98.8614 43.5419 99.1014 43.8116 99.1014 44.1407L99.0959 44.1353Z" fill="#3A7777"/>
<path d="M99.0959 44.1353V52H98.4904C98.2613 52 98.0431 51.9784 97.8304 51.9407V44.1407C97.8304 43.8116 98.065 43.5419 98.3595 43.5419H98.5723C98.8614 43.5419 99.1014 43.8116 99.1014 44.1407L99.0959 44.1353Z" fill="#3A7777"/>
<path d="M101.605 44.1353V52H100.34V44.1353C100.34 43.8062 100.569 43.5365 100.869 43.5365H101.081C101.371 43.5365 101.611 43.8062 101.611 44.1353H101.605Z" fill="#3A7777"/>
<path d="M101.605 44.1353V52H100.34V44.1353C100.34 43.8062 100.569 43.5365 100.869 43.5365H101.081C101.371 43.5365 101.611 43.8062 101.611 44.1353H101.605Z" fill="#3A7777"/>
<path d="M104.109 44.1353V51.9353C103.896 51.973 103.678 51.9946 103.454 51.9946H102.849V44.1299C102.849 43.8008 103.083 43.5311 103.378 43.5311H103.591C103.88 43.5311 104.12 43.8008 104.12 44.1299L104.109 44.1353Z" fill="#3A7777"/>
<path d="M104.109 44.1353V51.9353C103.896 51.973 103.678 51.9946 103.454 51.9946H102.849V44.1299C102.849 43.8008 103.083 43.5311 103.378 43.5311H103.591C103.88 43.5311 104.12 43.8008 104.12 44.1299L104.109 44.1353Z" fill="#3A7777"/>
<path d="M106.613 44.1353V50.2793C106.269 50.7647 105.838 51.1693 105.347 51.466V44.1353C105.347 43.8062 105.587 43.5365 105.876 43.5365H106.089C106.383 43.5365 106.618 43.8062 106.618 44.1353H106.613Z" fill="#3A7777"/>
<path d="M106.613 44.1353V50.2793C106.269 50.7647 105.838 51.1693 105.347 51.466V44.1353C105.347 43.8062 105.587 43.5365 105.876 43.5365H106.089C106.383 43.5365 106.618 43.8062 106.618 44.1353H106.613Z" fill="#3A7777"/>
<path d="M41.1668 0H73.2133C81.8154 0 88.7974 6.90456 88.7974 15.4112V24.0419H25.5826V15.4112C25.5826 6.90456 32.5647 0 41.1668 0Z" fill="#4F8A8B"/>
<path d="M86.7737 16.3984V24.4789H27.6063V16.3984C27.6063 15.8374 27.6391 15.2872 27.7045 14.7424C27.7809 14.0681 27.9009 13.41 28.0754 12.7681C29.6191 6.87223 34.8393 2.4382 41.1831 2.00667C41.5159 1.98509 41.8541 1.9743 42.1977 1.9743H72.1878C80.2444 1.9743 86.7791 8.43115 86.7791 16.3984H86.7737Z" fill="#FCFCFF"/>
<path d="M58.0109 1.92035H56.98V4.21288H58.0109V1.92035Z" fill="#4F8A8B"/>
<path d="M60.8474 2.93988H54.1436V4.72536H60.8474V2.93988Z" fill="#4F8A8B"/>
<path d="M110.229 42.1772H2.771C-0.0709102 39.7768 -1.69096 24.1444 2.771 15.7295C12.0877 3.30664 24.2517 12.9245 24.2517 12.9245C25.3154 12.2232 27.3445 11.6353 30.0446 11.1498C31.3701 10.9125 32.8538 10.7021 34.4629 10.5133C36.4321 10.2867 38.5922 10.0925 40.8831 9.94689C42.1541 9.86059 43.4632 9.79046 44.8051 9.72573C46.2615 9.661 47.7615 9.60706 49.278 9.56391C50.6907 9.52075 52.1199 9.49378 53.5545 9.4776C54.5909 9.4722 55.6272 9.46142 56.6636 9.46142C57.4437 9.46142 58.2182 9.46142 58.9983 9.4722C73.1205 9.59088 86.5664 10.7884 88.7538 12.9191C88.7538 12.9191 100.912 3.30125 110.234 15.7241C114.691 24.139 113.071 39.7714 110.234 42.1772H110.229Z" fill="#4F8A8B"/>
<path d="M55.9163 9.48299V42.1826H51.6398V9.56391C53.0526 9.52075 54.4817 9.49378 55.9163 9.4776V9.48299Z" fill="#FCFCFF"/>
<path d="M61.3601 9.47759V42.1772H59.0255V9.4668C59.8055 9.4668 60.5801 9.4668 61.3601 9.47759Z" fill="#FCFCFF"/>
<path d="M77.9207 18.9336H35.2375C32.8124 18.9336 30.8464 20.8777 30.8464 23.2759V30.6228C30.8464 33.021 32.8124 34.9651 35.2375 34.9651H77.9207C80.3458 34.9651 82.3117 33.021 82.3117 30.6228V23.2759C82.3117 20.8777 80.3458 18.9336 77.9207 18.9336Z" fill="#4F8A8B"/>
<path d="M77.9207 35.7365H35.243C32.3902 35.7365 30.0719 33.444 30.0719 30.6229V23.2814C30.0719 20.4602 32.3902 18.1677 35.243 18.1677H77.9262C80.779 18.1677 83.0972 20.4602 83.0972 23.2814V30.6229C83.0972 33.444 80.779 35.7365 77.9262 35.7365H77.9207ZM35.2375 19.705C33.2465 19.705 31.621 21.3071 31.621 23.2814V30.6229C31.621 32.5917 33.2411 34.1992 35.2375 34.1992H77.9207C79.9117 34.1992 81.5372 32.5971 81.5372 30.6229V23.2814C81.5372 21.3125 79.9171 19.705 77.9207 19.705H35.243H35.2375Z" fill="#3A7777"/>
<path d="M37.534 23.5456C37.534 22.9915 37.0809 22.5423 36.5221 22.5423C35.9633 22.5423 35.5103 22.9915 35.5103 23.5456V30.3531C35.5103 30.9072 35.9633 31.3564 36.5221 31.3564C37.0809 31.3564 37.534 30.9072 37.534 30.3531V23.5456Z" fill="#3A7777"/>
<path d="M41.5432 23.5456C41.5432 22.9915 41.0902 22.5423 40.5313 22.5423C39.9725 22.5423 39.5195 22.9915 39.5195 23.5456V30.3531C39.5195 30.9072 39.9725 31.3564 40.5313 31.3564C41.0902 31.3564 41.5432 30.9072 41.5432 30.3531V23.5456Z" fill="#3A7777"/>
<path d="M45.5579 23.5456C45.5579 22.9915 45.1049 22.5423 44.546 22.5423C43.9872 22.5423 43.5342 22.9915 43.5342 23.5456V30.3531C43.5342 30.9072 43.9872 31.3564 44.546 31.3564C45.1049 31.3564 45.5579 30.9072 45.5579 30.3531V23.5456Z" fill="#3A7777"/>
<path d="M49.5671 23.5456C49.5671 22.9915 49.1141 22.5423 48.5552 22.5423C47.9964 22.5423 47.5434 22.9915 47.5434 23.5456V30.3531C47.5434 30.9072 47.9964 31.3564 48.5552 31.3564C49.1141 31.3564 49.5671 30.9072 49.5671 30.3531V23.5456Z" fill="#3A7777"/>
<path d="M53.5817 23.5456C53.5817 22.9915 53.1287 22.5423 52.5699 22.5423C52.0111 22.5423 51.558 22.9915 51.558 23.5456V30.3531C51.558 30.9072 52.0111 31.3564 52.5699 31.3564C53.1287 31.3564 53.5817 30.9072 53.5817 30.3531V23.5456Z" fill="#3A7777"/>
<path d="M57.591 23.5456C57.591 22.9915 57.1379 22.5423 56.5791 22.5423C56.0203 22.5423 55.5673 22.9915 55.5673 23.5456V30.3531C55.5673 30.9072 56.0203 31.3564 56.5791 31.3564C57.1379 31.3564 57.591 30.9072 57.591 30.3531V23.5456Z" fill="#3A7777"/>
<path d="M61.6057 23.5456C61.6057 22.9915 61.1526 22.5423 60.5938 22.5423C60.035 22.5423 59.582 22.9915 59.582 23.5456V30.3531C59.582 30.9072 60.035 31.3564 60.5938 31.3564C61.1526 31.3564 61.6057 30.9072 61.6057 30.3531V23.5456Z" fill="#3A7777"/>
<path d="M65.6149 23.5456C65.6149 22.9915 65.1619 22.5423 64.603 22.5423C64.0442 22.5423 63.5912 22.9915 63.5912 23.5456V30.3531C63.5912 30.9072 64.0442 31.3564 64.603 31.3564C65.1619 31.3564 65.6149 30.9072 65.6149 30.3531V23.5456Z" fill="#3A7777"/>
<path d="M69.6295 23.5456C69.6295 22.9915 69.1765 22.5423 68.6177 22.5423C68.0589 22.5423 67.6058 22.9915 67.6058 23.5456V30.3531C67.6058 30.9072 68.0589 31.3564 68.6177 31.3564C69.1765 31.3564 69.6295 30.9072 69.6295 30.3531V23.5456Z" fill="#3A7777"/>
<path d="M73.6388 23.5456C73.6388 22.9915 73.1857 22.5423 72.6269 22.5423C72.0681 22.5423 71.6151 22.9915 71.6151 23.5456V30.3531C71.6151 30.9072 72.0681 31.3564 72.6269 31.3564C73.1857 31.3564 73.6388 30.9072 73.6388 30.3531V23.5456Z" fill="#3A7777"/>
<path d="M77.6534 23.5456C77.6534 22.9915 77.2004 22.5423 76.6416 22.5423C76.0827 22.5423 75.6297 22.9915 75.6297 23.5456V30.3531C75.6297 30.9072 76.0827 31.3564 76.6416 31.3564C77.2004 31.3564 77.6534 30.9072 77.6534 30.3531V23.5456Z" fill="#3A7777"/>
<path d="M11.8095 27.9527C15.9487 27.9527 19.3043 24.6344 19.3043 20.5411C19.3043 16.4478 15.9487 13.1295 11.8095 13.1295C7.67023 13.1295 4.3147 16.4478 4.3147 20.5411C4.3147 24.6344 7.67023 27.9527 11.8095 27.9527Z" fill="#3A7777"/>
<path d="M11.8095 25.9514C14.8311 25.9514 17.2806 23.5291 17.2806 20.5411C17.2806 17.553 14.8311 15.1307 11.8095 15.1307C8.78787 15.1307 6.33838 17.553 6.33838 20.5411C6.33838 23.5291 8.78787 25.9514 11.8095 25.9514Z" fill="#FCFCFF"/>
<path d="M9.07665 36.0548C8.13844 36.0548 7.36932 35.2996 7.36932 34.3664C7.36932 33.4332 8.13298 32.678 9.07665 32.678H14.5477C15.4859 32.678 16.2551 33.4332 16.2551 34.3664C16.2551 35.2996 15.4914 36.0548 14.5477 36.0548H9.07665Z" fill="#3A7777"/>
<path d="M100.727 27.9527C104.866 27.9527 108.222 24.6344 108.222 20.5411C108.222 16.4478 104.866 13.1295 100.727 13.1295C96.5876 13.1295 93.2321 16.4478 93.2321 20.5411C93.2321 24.6344 96.5876 27.9527 100.727 27.9527Z" fill="#3A7777"/>
<path d="M100.727 25.9514C103.748 25.9514 106.198 23.5291 106.198 20.5411C106.198 17.553 103.748 15.1307 100.727 15.1307C97.7053 15.1307 95.2558 17.553 95.2558 20.5411C95.2558 23.5291 97.7053 25.9514 100.727 25.9514Z" fill="#FCFCFF"/>
<path d="M97.9941 36.0548C97.0559 36.0548 96.2867 35.2996 96.2867 34.3664C96.2867 33.4332 97.0504 32.678 97.9941 32.678H103.465C104.403 32.678 105.172 33.4332 105.172 34.3664C105.172 35.2996 104.409 36.0548 103.465 36.0548H97.9941Z" fill="#3A7777"/>
</g>
<defs>
<clipPath id="clip0_54_210">
<rect width="113" height="52" fill="white"/>
</clipPath>
</defs>
</svg>
