<svg width="24" height="25" viewBox="0 0 24 25" fill="none" xmlns="http://www.w3.org/2000/svg">
<path d="M11.9402 2.70995L9.5302 8.31995H7.1202C6.7202 8.31995 6.3302 8.34995 5.9502 8.42995L6.9502 6.02995L6.9902 5.93995L7.0502 5.77995C7.0802 5.70995 7.1002 5.64995 7.1302 5.59995C8.2902 2.90995 9.5902 2.06995 11.9402 2.70995Z" fill="#1572D3"/>
<path d="M18.7301 8.59002L18.7101 8.58002C18.1101 8.41002 17.5001 8.32002 16.8801 8.32002H10.6201L12.8701 3.09002L12.9001 3.02002C13.0401 3.07002 13.1901 3.14002 13.3401 3.19002L15.5501 4.12002C16.7801 4.63002 17.6401 5.16002 18.1701 5.80002C18.2601 5.92002 18.3401 6.03002 18.4201 6.16002C18.5101 6.30002 18.5801 6.44002 18.6201 6.59002C18.6601 6.68002 18.6901 6.76002 18.7101 6.85002C18.8601 7.36002 18.8701 7.94002 18.7301 8.59002Z" fill="#1572D3"/>
<path d="M12.52 18.16H12.77C13.07 18.16 13.32 17.89 13.32 17.56C13.32 17.14 13.2 17.08 12.94 16.98L12.52 16.83V18.16Z" fill="#1572D3"/>
<path d="M18.2902 10.0199C17.8402 9.88995 17.3702 9.81995 16.8802 9.81995H7.12023C6.44023 9.81995 5.80023 9.94995 5.20023 10.2099C3.46023 10.9599 2.24023 12.6899 2.24023 14.6999V16.6499C2.24023 16.8899 2.26023 17.1199 2.29023 17.3599C2.51023 20.5399 4.21023 22.2399 7.39023 22.4499C7.62023 22.4799 7.85023 22.4999 8.10023 22.4999H15.9002C19.6002 22.4999 21.5502 20.7399 21.7402 17.2399C21.7502 17.0499 21.7602 16.8499 21.7602 16.6499V14.6999C21.7602 12.4899 20.2902 10.6299 18.2902 10.0199ZM13.2802 15.9999C13.7402 16.1599 14.3602 16.4999 14.3602 17.5599C14.3602 18.4699 13.6502 19.1999 12.7702 19.1999H12.5202V19.4199C12.5202 19.7099 12.2902 19.9399 12.0002 19.9399C11.7102 19.9399 11.4802 19.7099 11.4802 19.4199V19.1999H11.3902C10.4302 19.1999 9.64023 18.3899 9.64023 17.3899C9.64023 17.0999 9.87023 16.8699 10.1602 16.8699C10.4502 16.8699 10.6802 17.0999 10.6802 17.3899C10.6802 17.8099 11.0002 18.1599 11.3902 18.1599H11.4802V16.4699L10.7202 16.1999C10.2602 16.0399 9.64023 15.6999 9.64023 14.6399C9.64023 13.7299 10.3502 12.9999 11.2302 12.9999H11.4802V12.7799C11.4802 12.4899 11.7102 12.2599 12.0002 12.2599C12.2902 12.2599 12.5202 12.4899 12.5202 12.7799V12.9999H12.6102C13.5702 12.9999 14.3602 13.8099 14.3602 14.8099C14.3602 15.0999 14.1302 15.3299 13.8402 15.3299C13.5502 15.3299 13.3202 15.0999 13.3202 14.8099C13.3202 14.3899 13.0002 14.0399 12.6102 14.0399H12.5202V15.7299L13.2802 15.9999Z" fill="#1572D3"/>
<path d="M10.6802 14.64C10.6802 15.06 10.8002 15.12 11.0602 15.22L11.4802 15.37V14.04H11.2302C10.9202 14.04 10.6802 14.31 10.6802 14.64Z" fill="#1572D3"/>
</svg>
