<?xml version="1.0" encoding="UTF-8"?>
<svg id="Layer_1" data-name="Layer 1" xmlns="http://www.w3.org/2000/svg" viewBox="0 0 2279.42 1409.96">
  <defs>
    <style>
      .cls-1 {
        fill: #c4c2c2;
        fill-rule: evenodd;
      }
    </style>
  </defs>
  <path class="cls-1" d="M1920.63,1399.98v-302.61h-124.89v302.61h124.89Zm-661.16-125.65v-172.38h-121.05v131.77c0,38.3-1.53,49.04-3.83,59-8.43,27.59-37.55,39.82-67.42,39.82-41.36,0-60.52-16.08-68.18-41.36-2.3-8.4-3.06-17.6-3.83-26.8-.77-9.96,0-20.7,0-32.16v-130.26h-122.58v173.15c0,39.09,13.03,68.19,34.47,88.1,36.77,36.02,98.83,46.74,156.29,46.74,69.71,0,123.34-9.96,161.64-47.5,19.93-19.17,34.47-44.45,34.47-88.13h0Zm-594.5-21.45c-6.07-1.05-12.22-1.56-18.38-1.52h-137.89c-6.9,0-14.57,.77-18.39,1.52,2.3-2.31,6.9-6.89,11.49-13.02l62.05-102.67c8.43-13.77,12.26-22.97,13.79-26.8,1.53,3.83,5.36,13.02,13.79,27.59l63.59,103.43c3.07,4.58,7.67,9.16,9.96,11.47h0Zm231.37,147.1l-275.8-413.68h-154.74l40.6,48.26c.77,.77,2.31,1.52,3.83,2.31-1.53,.77-3.06,1.52-3.83,2.28l-240.55,360.83h139.42l37.55-62.06c1.53-3.06,2.3-6.13,2.3-7.65,1.53,0,5.37,1.52,9.2,1.52h248.98c3.83,0,6.89-.77,8.42-1.52-.14,2.15,.39,4.3,1.53,6.13l39.08,63.58h144.03Zm865.71-155.51c0-33.72-13.8-72.8-56.69-127.19l-103.43-130.99h-144.03l81.97,91.93c13.8,15.33,31.41,29.1,31.41,29.1-19.91-11.5-45.19-16.08-65.11-16.08-47.5,0-95.78,9.96-138.66,33.72-45.98,25.25-76.63,67.4-76.63,123.34,0,42.89,19.16,75.85,43.67,101.13,55.17,55.15,155.51,60.52,192.29,60.52,54.38,0,139.42-12.26,187.71-55.93,28.35-26.06,47.5-62.05,47.5-109.54h0Zm-119.52,3.83c0,31.41-20.7,55.15-46.74,68.17-21.45,11.5-46.74,14.57-68.95,14.57s-48.26-4.6-69.71-15.33c-26.04-13.02-45.98-38.3-45.98-65.89,0-32.93,25.28-59,55.17-72.02,18.39-8.4,40.61-11.48,58.21-11.48s41.39,2.28,60.54,9.96c34.49,14.54,57.46,42.13,57.46,72.02h0ZM1880.95,0c-89.7-.14-176.8,30.12-247.09,85.85C1563.58,30.11,1476.48-.15,1386.78,0c-89.69-.14-176.79,30.12-247.07,85.85C1069.43,30.11,982.33-.15,892.63,0c-89.69-.14-176.79,30.12-247.07,85.85C575.27,30.12,488.18-.14,398.48,0,178.37,0,0,178.36,0,398.48s178.36,398.48,398.48,398.48c89.69,.14,176.79-30.12,247.07-85.85,70.28,55.73,157.38,85.99,247.07,85.85,89.7,.15,176.79-30.11,247.07-85.85,70.28,55.72,157.38,85.99,247.07,85.85,89.7,.15,176.8-30.11,247.09-85.85,70.29,55.73,157.39,85.99,247.09,85.85,220.11,0,398.47-178.37,398.47-398.48S2101.06,0,1880.95,0ZM580.36,646.02c-50.78,37.04-114.21,59.65-181.87,59.65-169.8,0-307.2-137.39-307.2-307.19S228.68,91.28,398.48,91.28c67.66,0,131.06,22.62,181.87,59.67-55.99,70.34-86.38,157.63-86.2,247.53,.04,89.87,30.41,177.09,86.2,247.54Zm65.21-65.02c-39.16-52.79-60.24-116.8-60.11-182.52-.16-65.73,20.92-129.76,60.11-182.52,39.19,52.77,60.27,116.79,60.11,182.52,.12,65.72-20.96,129.74-60.11,182.52Zm428.95,65.02c-52.76,38.84-116.59,59.72-182.1,59.56-65.37,.13-129.06-20.75-181.67-59.56,55.79-70.45,86.16-157.67,86.2-247.53,.19-89.9-30.21-177.19-86.2-247.53,52.6-38.82,116.29-59.71,181.67-59.57,68.16,0,131.12,22.05,182.1,59.57-55.99,70.34-86.38,157.63-86.2,247.53,.04,89.86,30.41,177.08,86.2,247.53Zm65.19-65.02c-39.16-52.79-60.24-116.8-60.11-182.52-.16-65.73,20.93-129.75,60.11-182.52,39.2,52.77,60.29,116.79,60.13,182.52,.13,65.73-20.96,129.74-60.13,182.52Zm428.96,65.02c-50.97,37.53-113.94,59.56-182.08,59.56s-130.71-22.06-181.68-59.56c55.79-70.44,86.17-157.66,86.2-247.53,.19-89.9-30.21-177.19-86.2-247.53,50.97-37.51,113.54-59.57,181.68-59.57s131.11,22.05,182.08,59.57c-55.98,70.34-86.38,157.63-86.2,247.53,.05,89.86,30.42,177.08,86.2,247.53Zm65.21-65.02c-39.16-52.79-60.24-116.8-60.11-182.52-.17-65.73,20.92-129.76,60.11-182.52,39.19,52.77,60.27,116.79,60.11,182.52,.12,65.72-20.96,129.73-60.11,182.52Zm247.07,124.67c-67.69,0-131.11-22.61-181.87-59.65,55.78-70.45,86.16-157.67,86.2-247.53,.18-89.9-30.22-177.19-86.2-247.53,50.82-37.04,114.2-59.67,181.87-59.67,169.77,0,307.2,137.4,307.2,307.2s-137.43,307.18-307.2,307.18Z"/>
</svg>