<?xml version="1.0" encoding="UTF-8"?>
<svg id="Layer_1" data-name="Layer 1" xmlns="http://www.w3.org/2000/svg" viewBox="0 0 2279.41 2279.41">
  <defs>
    <style>
      .cls-1 {
        fill: #c4c2c2;
        fill-rule: evenodd;
      }
    </style>
  </defs>
  <path class="cls-1" d="M1139.71,0C510.27,0,0,510.27,0,1139.71s510.27,1139.7,1139.71,1139.7,1139.7-510.28,1139.7-1139.7S1769.15,0,1139.71,0ZM206.73,601.18C396.74,271.63,747.06,66.77,1127.09,61.83l-147.45,976.76L200.8,1668C13.75,1336.47,15.74,930.72,206.73,601.18Zm937.13,1616.39c-381,1.97-734.3-197.92-929.26-525.51l925.32-382.98,929.25,377.06c-192.97,328.55-545.28,530.45-925.31,531.43Zm151.42-1166.02L1154.74,61.91c378.64,5.79,726.49,209.76,916.42,537.37,190.98,327.57,194.95,730.36,11.85,1061.88l-787.73-609.61Z"/>
</svg>