<?xml version="1.0" encoding="UTF-8"?>
<svg id="Layer_1" data-name="Layer 1" xmlns="http://www.w3.org/2000/svg" xmlns:xlink="http://www.w3.org/1999/xlink" viewBox="0 0 510.48 510.48">
  <defs>
    <style>
      .cls-1 {
        fill: #fff;
      }

      .cls-2 {
        fill: #c4c2c2;
      }

      .cls-3 {
        clip-path: url(#clippath-1);
      }

      .cls-4 {
        clip-path: url(#clippath);
      }

      .cls-5 {
        fill: #b5b4b4;
      }
    </style>
    <clipPath id="clippath">
      <path class="cls-2" d="M95.69,249.3v3.03H252.4V95.61h-3.03V249.3H95.69Z"/>
    </clipPath>
    <clipPath id="clippath-1">
      <path class="cls-2" d="M413.15,261.31v-2.99h-154.83v154.84h2.98v-151.84h151.84Z"/>
    </clipPath>
  </defs>
  <path class="cls-5" d="M510.48,255.24c0,140.96-114.29,255.24-255.25,255.24S0,396.2,0,255.24,114.28,0,255.24,0s255.25,114.28,255.25,255.24h0Z"/>
  <path class="cls-2" d="M508.57,255.24c0,139.91-113.42,253.33-253.34,253.33S1.91,395.15,1.91,255.24,115.32,1.91,255.24,1.91s253.34,113.43,253.34,253.34Z"/>
  <path class="cls-1" d="M279.82,78.22h13.4V11.25h-20.14l-18.32,47.95h.17l-18.32-47.95h-20.14V78.22h13.4V31.46l17.64,46.76h14.65l17.64-46.76v46.76Z"/>
  <path class="cls-1" d="M459.14,122.04l9.74,11.7-56.59,28.42-11.44-13.85,21.94-33.07-.13-.17-36.5,15.62-11.55-13.76,38.16-50.53,9.75,11.7-23.89,32.18,36.97-16.49,10.46,12.55-22.88,33.38,35.96-17.69Z"/>
  <path class="cls-1" d="M134.23,96.73c-5.38-5.24-13.72-6.81-21.53-1.97,1.49-3.87,.88-7.82,.09-9.99-3.38-6.15-4.55-6.91-7.33-9.24-8.99-7.54-18.45-1.1-25.19,6.96l-32.69,38.94,51.38,43.1,34.46-41.07c7.87-9.39,9.09-18.68,.81-26.73Zm-66.46,18.78l19.63-23.39c2.27-2.71,7.41-2.6,10.72,.17,3.64,3.05,3.65,7.38,1.19,10.28l-19.4,23.13-12.14-10.19Zm54.17,3.89l-20.46,24.39-12.84-10.77,20.63-24.58c2.33-2.77,7.52-3.58,11.02-.64,3.97,3.33,4.36,8.37,1.65,11.6Z"/>
  <path class="cls-5" d="M91.05,255.24c0-90.68,73.51-164.19,164.19-164.19s164.19,73.51,164.19,164.19-73.5,164.19-164.19,164.19S91.05,345.92,91.05,255.24h0Z"/>
  <path class="cls-1" d="M95.77,255.24c0-88.07,71.4-159.48,159.47-159.48s159.48,71.4,159.48,159.48-71.41,159.48-159.48,159.48S95.77,343.32,95.77,255.24Z"/>
  <path class="cls-2" d="M95.52,255.24H255.24V95.52c-88.22,0-159.72,71.5-159.72,159.72Z"/>
  <path class="cls-2" d="M255.24,255.24v159.72c88.21,0,159.72-71.52,159.72-159.72H255.24Z"/>
  <g>
    <path class="cls-2" d="M95.69,249.3v3.03H252.4V95.61h-3.03V249.3H95.69Z"/>
    <g class="cls-4">
      <polygon class="cls-2" points="196.78 95.61 95.69 200.22 95.69 95.61 196.78 95.61"/>
      <polygon class="cls-2" points="200.72 95.61 95.69 204.3 95.69 200.22 196.78 95.61 200.72 95.61"/>
      <polygon class="cls-2" points="204.67 95.61 95.69 208.38 95.69 204.3 200.72 95.61 204.67 95.61"/>
      <polygon class="cls-2" points="208.61 95.61 95.69 212.46 95.69 208.38 204.67 95.61 208.61 95.61"/>
      <polygon class="cls-2" points="212.56 95.61 95.69 216.55 95.69 212.46 208.61 95.61 212.56 95.61"/>
      <polygon class="cls-2" points="216.5 95.61 95.69 220.63 95.69 216.55 212.56 95.61 216.5 95.61"/>
      <polygon class="cls-2" points="220.45 95.61 95.69 224.71 95.69 220.63 216.5 95.61 220.45 95.61"/>
      <polygon class="cls-2" points="224.39 95.61 95.69 228.79 95.69 224.71 220.45 95.61 224.39 95.61"/>
      <polygon class="cls-2" points="228.34 95.61 95.69 232.87 95.69 228.79 224.39 95.61 228.34 95.61"/>
      <polygon class="cls-2" points="230.57 95.61 95.69 235.19 95.69 232.87 228.34 95.61 230.57 95.61"/>
      <polygon class="cls-2" points="232.81 95.61 95.69 237.51 95.69 235.19 230.57 95.61 232.81 95.61"/>
      <polygon class="cls-2" points="235.05 95.61 95.69 239.82 95.69 237.51 232.81 95.61 235.05 95.61"/>
      <polygon class="cls-2" points="237.29 95.61 95.69 242.14 95.69 239.82 235.05 95.61 237.29 95.61"/>
      <polygon class="cls-2" points="239.52 95.61 95.69 244.45 95.69 242.14 237.29 95.61 239.52 95.61"/>
      <polygon class="cls-2" points="241.76 95.61 95.69 246.77 95.69 244.45 239.52 95.61 241.76 95.61"/>
      <polygon class="cls-2" points="244 95.61 95.69 249.08 95.69 246.77 241.76 95.61 244 95.61"/>
      <polygon class="cls-2" points="246.24 95.61 95.69 251.4 95.69 249.08 244 95.61 246.24 95.61"/>
      <polygon class="cls-2" points="248.47 95.61 97.03 252.33 95.69 252.33 95.69 251.4 246.24 95.61 248.47 95.61"/>
      <polygon class="cls-2" points="250.71 95.61 99.26 252.33 97.03 252.33 248.47 95.61 250.71 95.61"/>
      <polygon class="cls-2" points="252.4 96.17 101.5 252.33 99.26 252.33 250.71 95.61 252.4 95.61 252.4 96.17"/>
      <polygon class="cls-2" points="252.4 98.49 103.74 252.33 101.5 252.33 252.4 96.17 252.4 98.49"/>
      <polygon class="cls-2" points="252.4 100.8 105.98 252.33 103.74 252.33 252.4 98.49 252.4 100.8"/>
      <polygon class="cls-2" points="252.4 103.12 108.21 252.33 105.98 252.33 252.4 100.8 252.4 103.12"/>
      <polygon class="cls-2" points="252.4 105.43 110.45 252.33 108.21 252.33 252.4 103.12 252.4 105.43"/>
      <polygon class="cls-2" points="252.4 107.75 112.69 252.33 110.45 252.33 252.4 105.43 252.4 107.75"/>
      <polygon class="cls-2" points="252.4 110.06 114.93 252.33 112.69 252.33 252.4 107.75 252.4 110.06"/>
      <polygon class="cls-2" points="252.4 112.38 117.16 252.33 114.93 252.33 252.4 110.06 252.4 112.38"/>
      <polygon class="cls-2" points="252.4 114.69 119.4 252.33 117.16 252.33 252.4 112.38 252.4 114.69"/>
      <polygon class="cls-2" points="252.4 117.01 121.64 252.33 119.4 252.33 252.4 114.69 252.4 117.01"/>
      <polygon class="cls-2" points="252.4 119.33 123.88 252.33 121.64 252.33 252.4 117.01 252.4 119.33"/>
      <polygon class="cls-2" points="252.4 121.64 126.11 252.33 123.88 252.33 252.4 119.33 252.4 121.64"/>
      <polygon class="cls-2" points="252.4 123.38 127.8 252.33 126.11 252.33 252.4 121.64 252.4 123.38"/>
      <polygon class="cls-2" points="252.4 125.12 129.48 252.33 127.8 252.33 252.4 123.38 252.4 125.12"/>
      <polygon class="cls-2" points="252.4 126.86 131.16 252.33 129.48 252.33 252.4 125.12 252.4 126.86"/>
      <polygon class="cls-2" points="252.4 128.6 132.84 252.33 131.16 252.33 252.4 126.86 252.4 128.6"/>
      <polygon class="cls-2" points="252.4 130.34 134.52 252.33 132.84 252.33 252.4 128.6 252.4 130.34"/>
      <polygon class="cls-2" points="252.4 132.08 136.2 252.33 134.52 252.33 252.4 130.34 252.4 132.08"/>
      <polygon class="cls-2" points="252.4 133.82 137.88 252.33 136.2 252.33 252.4 132.08 252.4 133.82"/>
      <polygon class="cls-2" points="252.4 135.56 139.56 252.33 137.88 252.33 252.4 133.82 252.4 135.56"/>
      <polygon class="cls-2" points="252.4 137.3 141.25 252.33 139.56 252.33 252.4 135.56 252.4 137.3"/>
      <polygon class="cls-2" points="252.4 139.04 142.93 252.33 141.25 252.33 252.4 137.3 252.4 139.04"/>
      <polygon class="cls-2" points="252.4 140.78 144.61 252.33 142.93 252.33 252.4 139.04 252.4 140.78"/>
      <polygon class="cls-2" points="252.4 142.52 146.29 252.33 144.61 252.33 252.4 140.78 252.4 142.52"/>
      <polygon class="cls-2" points="252.4 144.26 147.97 252.33 146.29 252.33 252.4 142.52 252.4 144.26"/>
      <polygon class="cls-2" points="252.4 146 149.65 252.33 147.97 252.33 252.4 144.26 252.4 146"/>
      <polygon class="cls-2" points="252.4 147.74 151.33 252.33 149.65 252.33 252.4 146 252.4 147.74"/>
      <polygon class="cls-2" points="252.4 149.48 153.02 252.33 151.33 252.33 252.4 147.74 252.4 149.48"/>
      <polygon class="cls-2" points="252.4 151.22 154.7 252.33 153.02 252.33 252.4 149.48 252.4 151.22"/>
      <polygon class="cls-2" points="252.4 152.96 156.38 252.33 154.7 252.33 252.4 151.22 252.4 152.96"/>
      <polygon class="cls-2" points="252.4 154.7 158.06 252.33 156.38 252.33 252.4 152.96 252.4 154.7"/>
      <polygon class="cls-2" points="252.4 156.44 159.74 252.33 158.06 252.33 252.4 154.7 252.4 156.44"/>
      <polygon class="cls-2" points="252.4 158.18 161.42 252.33 159.74 252.33 252.4 156.44 252.4 158.18"/>
      <polygon class="cls-2" points="252.4 159.92 163.1 252.33 161.42 252.33 252.4 158.18 252.4 159.92"/>
      <polygon class="cls-2" points="252.4 161.66 164.79 252.33 163.1 252.33 252.4 159.92 252.4 161.66"/>
      <polygon class="cls-2" points="252.4 163.4 166.47 252.33 164.79 252.33 252.4 161.66 252.4 163.4"/>
      <polygon class="cls-2" points="252.4 165.14 168.15 252.33 166.47 252.33 252.4 163.4 252.4 165.14"/>
      <polygon class="cls-2" points="252.4 166.88 169.83 252.33 168.15 252.33 252.4 165.14 252.4 166.88"/>
      <polygon class="cls-2" points="252.4 168.62 171.51 252.33 169.83 252.33 252.4 166.88 252.4 168.62"/>
      <polygon class="cls-2" points="252.4 170.36 173.19 252.33 171.51 252.33 252.4 168.62 252.4 170.36"/>
      <polygon class="cls-2" points="252.4 172.1 174.87 252.33 173.19 252.33 252.4 170.36 252.4 172.1"/>
      <polygon class="cls-2" points="252.4 173.84 176.55 252.33 174.87 252.33 252.4 172.1 252.4 173.84"/>
      <polygon class="cls-2" points="252.4 175.58 178.24 252.33 176.55 252.33 252.4 173.84 252.4 175.58"/>
      <polygon class="cls-2" points="252.4 177.32 179.92 252.33 178.24 252.33 252.4 175.58 252.4 177.32"/>
      <polygon class="cls-2" points="252.4 179.06 181.6 252.33 179.92 252.33 252.4 177.32 252.4 179.06"/>
      <polygon class="cls-2" points="252.4 180.8 183.28 252.33 181.6 252.33 252.4 179.06 252.4 180.8"/>
      <polygon class="cls-2" points="252.4 182.54 184.96 252.33 183.28 252.33 252.4 180.8 252.4 182.54"/>
      <polygon class="cls-2" points="252.4 184.28 186.64 252.33 184.96 252.33 252.4 182.54 252.4 184.28"/>
      <polygon class="cls-2" points="252.4 185.71 188.03 252.33 186.64 252.33 252.4 184.28 252.4 185.71"/>
      <polygon class="cls-2" points="252.4 187.15 189.41 252.33 188.03 252.33 252.4 185.71 252.4 187.15"/>
      <polygon class="cls-2" points="252.4 188.58 190.8 252.33 189.41 252.33 252.4 187.15 252.4 188.58"/>
      <polygon class="cls-2" points="252.4 190.01 192.18 252.33 190.8 252.33 252.4 188.58 252.4 190.01"/>
      <polygon class="cls-2" points="252.4 191.44 193.57 252.33 192.18 252.33 252.4 190.01 252.4 191.44"/>
      <polygon class="cls-2" points="252.4 192.88 194.95 252.33 193.57 252.33 252.4 191.44 252.4 192.88"/>
      <polygon class="cls-2" points="252.4 194.31 196.34 252.33 194.95 252.33 252.4 192.88 252.4 194.31"/>
      <polygon class="cls-2" points="252.4 195.74 197.72 252.33 196.34 252.33 252.4 194.31 252.4 195.74"/>
      <polygon class="cls-2" points="252.4 197.18 199.11 252.33 197.72 252.33 252.4 195.74 252.4 197.18"/>
      <polygon class="cls-2" points="252.4 198.61 200.49 252.33 199.11 252.33 252.4 197.18 252.4 198.61"/>
      <polygon class="cls-2" points="252.4 200.04 201.88 252.33 200.49 252.33 252.4 198.61 252.4 200.04"/>
      <polygon class="cls-2" points="252.4 201.48 203.26 252.33 201.88 252.33 252.4 200.04 252.4 201.48"/>
      <polygon class="cls-2" points="252.4 202.91 204.65 252.33 203.26 252.33 252.4 201.48 252.4 202.91"/>
      <polygon class="cls-2" points="252.4 204.34 206.03 252.33 204.65 252.33 252.4 202.91 252.4 204.34"/>
      <polygon class="cls-2" points="252.4 205.78 207.42 252.33 206.03 252.33 252.4 204.34 252.4 205.78"/>
      <polygon class="cls-2" points="252.4 207.21 208.8 252.33 207.42 252.33 252.4 205.78 252.4 207.21"/>
      <polygon class="cls-2" points="252.4 208.64 210.19 252.33 208.8 252.33 252.4 207.21 252.4 208.64"/>
      <polygon class="cls-2" points="252.4 210.07 211.57 252.33 210.19 252.33 252.4 208.64 252.4 210.07"/>
      <polygon class="cls-2" points="252.4 211.51 212.96 252.33 211.57 252.33 252.4 210.07 252.4 211.51"/>
      <polygon class="cls-2" points="252.4 212.94 214.34 252.33 212.96 252.33 252.4 211.51 252.4 212.94"/>
      <polygon class="cls-2" points="252.4 214.37 215.73 252.33 214.34 252.33 252.4 212.94 252.4 214.37"/>
      <polygon class="cls-2" points="252.4 215.81 217.11 252.33 215.73 252.33 252.4 214.37 252.4 215.81"/>
      <polygon class="cls-2" points="252.4 217.24 218.5 252.33 217.11 252.33 252.4 215.81 252.4 217.24"/>
      <polygon class="cls-2" points="252.4 218.67 219.88 252.33 218.5 252.33 252.4 217.24 252.4 218.67"/>
      <polygon class="cls-2" points="252.4 220.11 221.26 252.33 219.88 252.33 252.4 218.67 252.4 220.11"/>
      <polygon class="cls-2" points="252.4 221.54 222.65 252.33 221.26 252.33 252.4 220.11 252.4 221.54"/>
      <polygon class="cls-2" points="252.4 222.97 224.03 252.33 222.65 252.33 252.4 221.54 252.4 222.97"/>
      <polygon class="cls-2" points="252.4 224.41 225.42 252.33 224.03 252.33 252.4 222.97 252.4 224.41"/>
      <polygon class="cls-2" points="252.4 225.84 226.8 252.33 225.42 252.33 252.4 224.41 252.4 225.84"/>
      <polygon class="cls-2" points="252.4 227.27 228.19 252.33 226.8 252.33 252.4 225.84 252.4 227.27"/>
      <polygon class="cls-2" points="252.4 228.71 229.57 252.33 228.19 252.33 252.4 227.27 252.4 228.71"/>
      <polygon class="cls-2" points="252.4 230.14 230.96 252.33 229.57 252.33 252.4 228.71 252.4 230.14"/>
      <polygon class="cls-2" points="252.4 231.57 232.34 252.33 230.96 252.33 252.4 230.14 252.4 231.57"/>
      <polygon class="cls-2" points="252.4 233 233.73 252.33 232.34 252.33 252.4 231.57 252.4 233"/>
      <polygon class="cls-2" points="252.4 234.44 235.11 252.33 233.73 252.33 252.4 233 252.4 234.44"/>
      <polygon class="cls-2" points="252.4 235.87 236.5 252.33 235.11 252.33 252.4 234.44 252.4 235.87"/>
      <polygon class="cls-2" points="252.4 237.3 237.88 252.33 236.5 252.33 252.4 235.87 252.4 237.3"/>
      <polygon class="cls-2" points="252.4 238.74 239.27 252.33 237.88 252.33 252.4 237.3 252.4 238.74"/>
      <polygon class="cls-2" points="252.4 240.17 240.65 252.33 239.27 252.33 252.4 238.74 252.4 240.17"/>
      <polygon class="cls-2" points="252.4 241.6 242.04 252.33 240.65 252.33 252.4 240.17 252.4 241.6"/>
      <polygon class="cls-2" points="252.4 243.04 243.42 252.33 242.04 252.33 252.4 241.6 252.4 243.04"/>
      <polygon class="cls-2" points="252.4 244.47 244.81 252.33 243.42 252.33 252.4 243.04 252.4 244.47"/>
      <polygon class="cls-2" points="252.4 245.9 246.19 252.33 244.81 252.33 252.4 244.47 252.4 245.9"/>
      <polygon class="cls-2" points="252.4 247.34 247.58 252.33 246.19 252.33 252.4 245.9 252.4 247.34"/>
      <polygon class="cls-2" points="252.4 248.77 248.96 252.33 247.58 252.33 252.4 247.34 252.4 248.77"/>
      <polygon class="cls-2" points="252.4 250.2 250.35 252.33 248.96 252.33 252.4 248.77 252.4 250.2"/>
      <polygon class="cls-2" points="252.4 251.64 251.73 252.33 250.35 252.33 252.4 250.2 252.4 251.64"/>
      <polygon class="cls-2" points="251.73 252.33 252.4 251.64 252.4 252.33 251.73 252.33"/>
    </g>
  </g>
  <g>
    <path class="cls-2" d="M413.15,261.31v-2.99h-154.83v154.84h2.98v-151.84h151.84Z"/>
    <g class="cls-3">
      <path class="cls-2" d="M262.21,258.32l-3.88,4.02,3.88-4.02Z"/>
      <polygon class="cls-2" points="266.09 258.32 258.33 266.35 258.33 262.34 262.21 258.32 266.09 258.32"/>
      <polygon class="cls-2" points="269.97 258.32 258.33 270.37 258.33 266.35 266.09 258.32 269.97 258.32"/>
      <polygon class="cls-2" points="273.85 258.32 258.33 274.38 258.33 270.37 269.97 258.32 273.85 258.32"/>
      <polygon class="cls-2" points="277.73 258.32 258.33 278.4 258.33 274.38 273.85 258.32 277.73 258.32"/>
      <polygon class="cls-2" points="279.43 258.32 258.33 280.15 258.33 278.4 277.73 258.32 279.43 258.32"/>
      <polygon class="cls-2" points="281.13 258.32 258.33 281.91 258.33 280.15 279.43 258.32 281.13 258.32"/>
      <polygon class="cls-2" points="282.82 258.32 258.33 283.67 258.33 281.91 281.13 258.32 282.82 258.32"/>
      <polygon class="cls-2" points="284.52 258.32 258.33 285.43 258.33 283.67 282.82 258.32 284.52 258.32"/>
      <polygon class="cls-2" points="286.22 258.32 258.33 287.18 258.33 285.43 284.52 258.32 286.22 258.32"/>
      <polygon class="cls-2" points="287.92 258.32 258.33 288.94 258.33 287.18 286.22 258.32 287.92 258.32"/>
      <polygon class="cls-2" points="289.62 258.32 258.33 290.7 258.33 288.94 287.92 258.32 289.62 258.32"/>
      <polygon class="cls-2" points="291.32 258.32 258.33 292.46 258.33 290.7 289.62 258.32 291.32 258.32"/>
      <polygon class="cls-2" points="293.01 258.32 258.33 294.22 258.33 292.46 291.32 258.32 293.01 258.32"/>
      <polygon class="cls-2" points="294.71 258.32 258.33 295.97 258.33 294.22 293.01 258.32 294.71 258.32"/>
      <polygon class="cls-2" points="296.41 258.32 258.33 297.73 258.33 295.97 294.71 258.32 296.41 258.32"/>
      <polygon class="cls-2" points="298.11 258.32 258.33 299.49 258.33 297.73 296.41 258.32 298.11 258.32"/>
      <polygon class="cls-2" points="299.81 258.32 258.33 301.25 258.33 299.49 298.11 258.32 299.81 258.32"/>
      <polygon class="cls-2" points="300.82 258.32 258.33 302.3 258.33 301.25 299.81 258.32 300.82 258.32"/>
      <polygon class="cls-2" points="301.84 258.32 258.33 303.35 258.33 302.3 300.82 258.32 301.84 258.32"/>
      <polygon class="cls-2" points="302.85 258.32 258.33 304.4 258.33 303.35 301.84 258.32 302.85 258.32"/>
      <polygon class="cls-2" points="303.87 258.32 258.33 305.45 258.33 304.4 302.85 258.32 303.87 258.32"/>
      <polygon class="cls-2" points="304.88 258.32 258.33 306.5 258.33 305.45 303.87 258.32 304.88 258.32"/>
      <polygon class="cls-2" points="305.9 258.32 258.33 307.55 258.33 306.5 304.88 258.32 305.9 258.32"/>
      <polygon class="cls-2" points="306.91 258.32 258.33 308.6 258.33 307.55 305.9 258.32 306.91 258.32"/>
      <polygon class="cls-2" points="307.93 258.32 258.33 309.65 258.33 308.6 306.91 258.32 307.93 258.32"/>
      <polygon class="cls-2" points="308.94 258.32 258.33 310.7 258.33 309.65 307.93 258.32 308.94 258.32"/>
      <polygon class="cls-2" points="309.96 258.32 258.33 311.75 258.33 310.7 308.94 258.32 309.96 258.32"/>
      <polygon class="cls-2" points="310.97 258.32 258.33 312.8 258.33 311.75 309.96 258.32 310.97 258.32"/>
      <polygon class="cls-2" points="311.99 258.32 258.33 313.85 258.33 312.8 310.97 258.32 311.99 258.32"/>
      <polygon class="cls-2" points="313 258.32 258.33 314.9 258.33 313.85 311.99 258.32 313 258.32"/>
      <polygon class="cls-2" points="314.02 258.32 258.33 315.95 258.33 314.9 313 258.32 314.02 258.32"/>
      <polygon class="cls-2" points="315.03 258.32 258.33 317 258.33 315.95 314.02 258.32 315.03 258.32"/>
      <polygon class="cls-2" points="316.05 258.32 258.33 318.05 258.33 317 315.03 258.32 316.05 258.32"/>
      <polygon class="cls-2" points="317.06 258.32 258.33 319.1 258.33 318.05 316.05 258.32 317.06 258.32"/>
      <polygon class="cls-2" points="318.08 258.32 258.33 320.15 258.33 319.1 317.06 258.32 318.08 258.32"/>
      <polygon class="cls-2" points="319.09 258.32 258.33 321.2 258.33 320.15 318.08 258.32 319.09 258.32"/>
      <polygon class="cls-2" points="320.11 258.32 258.33 322.25 258.33 321.2 319.09 258.32 320.11 258.32"/>
      <polygon class="cls-2" points="321.12 258.32 258.33 323.3 258.33 322.25 320.11 258.32 321.12 258.32"/>
      <polygon class="cls-2" points="322.14 258.32 258.33 324.35 258.33 323.3 321.12 258.32 322.14 258.32"/>
      <polygon class="cls-2" points="323.15 258.32 258.33 325.4 258.33 324.35 322.14 258.32 323.15 258.32"/>
      <polygon class="cls-2" points="323.92 258.32 258.33 326.19 258.33 325.4 323.15 258.32 323.92 258.32"/>
      <polygon class="cls-2" points="324.68 258.32 258.33 326.98 258.33 326.19 323.92 258.32 324.68 258.32"/>
      <polygon class="cls-2" points="325.44 258.32 258.33 327.77 258.33 326.98 324.68 258.32 325.44 258.32"/>
      <polygon class="cls-2" points="326.21 258.32 258.33 328.56 258.33 327.77 325.44 258.32 326.21 258.32"/>
      <polygon class="cls-2" points="326.97 258.32 258.33 329.35 258.33 328.56 326.21 258.32 326.97 258.32"/>
      <polygon class="cls-2" points="327.73 258.32 258.33 330.15 258.33 329.35 326.97 258.32 327.73 258.32"/>
      <polygon class="cls-2" points="328.5 258.32 258.33 330.94 258.33 330.15 327.73 258.32 328.5 258.32"/>
      <polygon class="cls-2" points="329.26 258.32 258.33 331.73 258.33 330.94 328.5 258.32 329.26 258.32"/>
      <polygon class="cls-2" points="330.03 258.32 258.33 332.52 258.33 331.73 329.26 258.32 330.03 258.32"/>
      <polygon class="cls-2" points="330.79 258.32 258.33 333.31 258.33 332.52 330.03 258.32 330.79 258.32"/>
      <polygon class="cls-2" points="331.55 258.32 258.33 334.1 258.33 333.31 330.79 258.32 331.55 258.32"/>
      <polygon class="cls-2" points="332.32 258.32 258.33 334.89 258.33 334.1 331.55 258.32 332.32 258.32"/>
      <polygon class="cls-2" points="333.08 258.32 258.33 335.68 258.33 334.89 332.32 258.32 333.08 258.32"/>
      <polygon class="cls-2" points="333.85 258.32 258.33 336.47 258.33 335.68 333.08 258.32 333.85 258.32"/>
      <polygon class="cls-2" points="334.61 258.32 258.33 337.26 258.33 336.47 333.85 258.32 334.61 258.32"/>
      <polygon class="cls-2" points="335.37 258.32 258.33 338.05 258.33 337.26 334.61 258.32 335.37 258.32"/>
      <polygon class="cls-2" points="336.14 258.32 258.33 338.84 258.33 338.05 335.37 258.32 336.14 258.32"/>
      <polygon class="cls-2" points="336.9 258.32 258.33 339.63 258.33 338.84 336.14 258.32 336.9 258.32"/>
      <polygon class="cls-2" points="337.67 258.32 258.33 340.42 258.33 339.63 336.9 258.32 337.67 258.32"/>
      <polygon class="cls-2" points="338.43 258.32 258.33 341.21 258.33 340.42 337.67 258.32 338.43 258.32"/>
      <polygon class="cls-2" points="339.19 258.32 258.33 342 258.33 341.21 338.43 258.32 339.19 258.32"/>
      <polygon class="cls-2" points="339.96 258.32 258.33 342.79 258.33 342 339.19 258.32 339.96 258.32"/>
      <polygon class="cls-2" points="340.72 258.32 258.33 343.58 258.33 342.79 339.96 258.32 340.72 258.32"/>
      <polygon class="cls-2" points="341.49 258.32 258.33 344.38 258.33 343.58 340.72 258.32 341.49 258.32"/>
      <polygon class="cls-2" points="342.25 258.32 258.33 345.17 258.33 344.38 341.49 258.32 342.25 258.32"/>
      <polygon class="cls-2" points="343.01 258.32 258.33 345.96 258.33 345.17 342.25 258.32 343.01 258.32"/>
      <polygon class="cls-2" points="343.78 258.32 258.33 346.75 258.33 345.96 343.01 258.32 343.78 258.32"/>
      <polygon class="cls-2" points="344.54 258.32 258.33 347.54 258.33 346.75 343.78 258.32 344.54 258.32"/>
      <polygon class="cls-2" points="345.31 258.32 258.33 348.33 258.33 347.54 344.54 258.32 345.31 258.32"/>
      <polygon class="cls-2" points="346.07 258.32 258.33 349.12 258.33 348.33 345.31 258.32 346.07 258.32"/>
      <polygon class="cls-2" points="346.83 258.32 258.33 349.91 258.33 349.12 346.07 258.32 346.83 258.32"/>
      <polygon class="cls-2" points="347.6 258.32 258.33 350.7 258.33 349.91 346.83 258.32 347.6 258.32"/>
      <polygon class="cls-2" points="348.21 258.32 258.33 351.33 258.33 350.7 347.6 258.32 348.21 258.32"/>
      <polygon class="cls-2" points="348.82 258.32 258.33 351.97 258.33 351.33 348.21 258.32 348.82 258.32"/>
      <polygon class="cls-2" points="349.43 258.32 258.33 352.6 258.33 351.97 348.82 258.32 349.43 258.32"/>
      <polygon class="cls-2" points="350.04 258.32 258.33 353.23 258.33 352.6 349.43 258.32 350.04 258.32"/>
      <polygon class="cls-2" points="350.66 258.32 258.33 353.86 258.33 353.23 350.04 258.32 350.66 258.32"/>
      <polygon class="cls-2" points="351.27 258.32 258.33 354.5 258.33 353.86 350.66 258.32 351.27 258.32"/>
      <polygon class="cls-2" points="351.88 258.32 258.33 355.13 258.33 354.5 351.27 258.32 351.88 258.32"/>
      <polygon class="cls-2" points="352.49 258.32 258.33 355.76 258.33 355.13 351.88 258.32 352.49 258.32"/>
      <polygon class="cls-2" points="353.1 258.32 258.33 356.4 258.33 355.76 352.49 258.32 353.1 258.32"/>
      <polygon class="cls-2" points="353.71 258.32 258.33 357.03 258.33 356.4 353.1 258.32 353.71 258.32"/>
      <polygon class="cls-2" points="354.33 258.32 258.33 357.66 258.33 357.03 353.71 258.32 354.33 258.32"/>
      <polygon class="cls-2" points="354.94 258.32 258.33 358.3 258.33 357.66 354.33 258.32 354.94 258.32"/>
      <polygon class="cls-2" points="355.55 258.32 258.33 358.93 258.33 358.3 354.94 258.32 355.55 258.32"/>
      <polygon class="cls-2" points="356.16 258.32 258.33 359.56 258.33 358.93 355.55 258.32 356.16 258.32"/>
      <polygon class="cls-2" points="356.77 258.32 258.33 360.19 258.33 359.56 356.16 258.32 356.77 258.32"/>
      <polygon class="cls-2" points="357.38 258.32 258.33 360.83 258.33 360.19 356.77 258.32 357.38 258.32"/>
      <polygon class="cls-2" points="358 258.32 258.33 361.46 258.33 360.83 357.38 258.32 358 258.32"/>
      <polygon class="cls-2" points="358.61 258.32 258.33 362.09 258.33 361.46 358 258.32 358.61 258.32"/>
      <polygon class="cls-2" points="359.22 258.32 258.33 362.73 258.33 362.09 358.61 258.32 359.22 258.32"/>
      <polygon class="cls-2" points="359.83 258.32 258.33 363.36 258.33 362.73 359.22 258.32 359.83 258.32"/>
      <polygon class="cls-2" points="360.44 258.32 258.33 363.99 258.33 363.36 359.83 258.32 360.44 258.32"/>
      <polygon class="cls-2" points="361.05 258.32 258.33 364.62 258.33 363.99 360.44 258.32 361.05 258.32"/>
      <polygon class="cls-2" points="361.67 258.32 258.33 365.26 258.33 364.62 361.05 258.32 361.67 258.32"/>
      <polygon class="cls-2" points="362.28 258.32 258.33 365.89 258.33 365.26 361.67 258.32 362.28 258.32"/>
      <polygon class="cls-2" points="362.89 258.32 258.33 366.52 258.33 365.89 362.28 258.32 362.89 258.32"/>
      <polygon class="cls-2" points="363.5 258.32 258.33 367.16 258.33 366.52 362.89 258.32 363.5 258.32"/>
      <polygon class="cls-2" points="364.11 258.32 258.33 367.79 258.33 367.16 363.5 258.32 364.11 258.32"/>
      <polygon class="cls-2" points="364.72 258.32 258.33 368.42 258.33 367.79 364.11 258.32 364.72 258.32"/>
      <polygon class="cls-2" points="365.34 258.32 258.33 369.06 258.33 368.42 364.72 258.32 365.34 258.32"/>
      <polygon class="cls-2" points="365.95 258.32 258.33 369.69 258.33 369.06 365.34 258.32 365.95 258.32"/>
      <polygon class="cls-2" points="366.56 258.32 258.33 370.32 258.33 369.69 365.95 258.32 366.56 258.32"/>
      <polygon class="cls-2" points="367.17 258.32 258.33 370.95 258.33 370.32 366.56 258.32 367.17 258.32"/>
      <polygon class="cls-2" points="367.78 258.32 258.33 371.59 258.33 370.95 367.17 258.32 367.78 258.32"/>
      <polygon class="cls-2" points="368.39 258.32 258.33 372.22 258.33 371.59 367.78 258.32 368.39 258.32"/>
      <polygon class="cls-2" points="369.01 258.32 258.33 372.85 258.33 372.22 368.39 258.32 369.01 258.32"/>
      <polygon class="cls-2" points="369.62 258.32 258.33 373.49 258.33 372.85 369.01 258.32 369.62 258.32"/>
      <polygon class="cls-2" points="370.23 258.32 258.33 374.12 258.33 373.49 369.62 258.32 370.23 258.32"/>
      <polygon class="cls-2" points="370.84 258.32 258.33 374.75 258.33 374.12 370.23 258.32 370.84 258.32"/>
      <polygon class="cls-2" points="371.45 258.32 258.33 375.39 258.33 374.75 370.84 258.32 371.45 258.32"/>
      <polygon class="cls-2" points="372.06 258.32 258.33 376.02 258.33 375.39 371.45 258.32 372.06 258.32"/>
      <polygon class="cls-2" points="372.67 258.32 258.33 376.65 258.33 376.02 372.06 258.32 372.67 258.32"/>
      <polygon class="cls-2" points="373.18 258.32 258.33 377.17 258.33 376.65 372.67 258.32 373.18 258.32"/>
      <polygon class="cls-2" points="373.68 258.32 258.33 377.7 258.33 377.17 373.18 258.32 373.68 258.32"/>
      <polygon class="cls-2" points="374.19 258.32 258.33 378.22 258.33 377.7 373.68 258.32 374.19 258.32"/>
      <polygon class="cls-2" points="374.69 258.32 258.33 378.74 258.33 378.22 374.19 258.32 374.69 258.32"/>
      <polygon class="cls-2" points="375.2 258.32 258.33 379.26 258.33 378.74 374.69 258.32 375.2 258.32"/>
      <polygon class="cls-2" points="375.7 258.32 258.33 379.78 258.33 379.26 375.2 258.32 375.7 258.32"/>
      <polygon class="cls-2" points="376.21 258.32 258.33 380.31 258.33 379.78 375.7 258.32 376.21 258.32"/>
      <polygon class="cls-2" points="376.71 258.32 258.33 380.83 258.33 380.31 376.21 258.32 376.71 258.32"/>
      <polygon class="cls-2" points="377.22 258.32 258.33 381.35 258.33 380.83 376.71 258.32 377.22 258.32"/>
      <polygon class="cls-2" points="377.72 258.32 258.33 381.87 258.33 381.35 377.22 258.32 377.72 258.32"/>
      <polygon class="cls-2" points="378.23 258.32 258.33 382.4 258.33 381.87 377.72 258.32 378.23 258.32"/>
      <polygon class="cls-2" points="378.73 258.32 258.33 382.92 258.33 382.4 378.23 258.32 378.73 258.32"/>
      <polygon class="cls-2" points="379.24 258.32 258.33 383.44 258.33 382.92 378.73 258.32 379.24 258.32"/>
      <polygon class="cls-2" points="379.74 258.32 258.33 383.96 258.33 383.44 379.24 258.32 379.74 258.32"/>
      <polygon class="cls-2" points="380.25 258.32 258.33 384.49 258.33 383.96 379.74 258.32 380.25 258.32"/>
      <polygon class="cls-2" points="380.75 258.32 258.33 385.01 258.33 384.49 380.25 258.32 380.75 258.32"/>
      <polygon class="cls-2" points="381.25 258.32 258.33 385.53 258.33 385.01 380.75 258.32 381.25 258.32"/>
      <polygon class="cls-2" points="381.76 258.32 258.33 386.05 258.33 385.53 381.25 258.32 381.76 258.32"/>
      <polygon class="cls-2" points="382.26 258.32 258.33 386.57 258.33 386.05 381.76 258.32 382.26 258.32"/>
      <polygon class="cls-2" points="382.77 258.32 258.33 387.1 258.33 386.57 382.26 258.32 382.77 258.32"/>
      <polygon class="cls-2" points="383.27 258.32 258.33 387.62 258.33 387.1 382.77 258.32 383.27 258.32"/>
      <polygon class="cls-2" points="383.78 258.32 258.33 388.14 258.33 387.62 383.27 258.32 383.78 258.32"/>
      <polygon class="cls-2" points="384.28 258.32 258.33 388.66 258.33 388.14 383.78 258.32 384.28 258.32"/>
      <polygon class="cls-2" points="384.79 258.32 258.33 389.19 258.33 388.66 384.28 258.32 384.79 258.32"/>
      <polygon class="cls-2" points="385.29 258.32 258.33 389.71 258.33 389.19 384.79 258.32 385.29 258.32"/>
      <polygon class="cls-2" points="385.8 258.32 258.33 390.23 258.33 389.71 385.29 258.32 385.8 258.32"/>
      <polygon class="cls-2" points="386.3 258.32 258.33 390.75 258.33 390.23 385.8 258.32 386.3 258.32"/>
      <polygon class="cls-2" points="386.81 258.32 258.33 391.27 258.33 390.75 386.3 258.32 386.81 258.32"/>
      <polygon class="cls-2" points="387.31 258.32 258.33 391.8 258.33 391.27 386.81 258.32 387.31 258.32"/>
      <polygon class="cls-2" points="387.82 258.32 258.33 392.32 258.33 391.8 387.31 258.32 387.82 258.32"/>
      <polygon class="cls-2" points="388.32 258.32 258.33 392.84 258.33 392.32 387.82 258.32 388.32 258.32"/>
      <polygon class="cls-2" points="388.83 258.32 258.33 393.36 258.33 392.84 388.32 258.32 388.83 258.32"/>
      <polygon class="cls-2" points="389.33 258.32 258.33 393.89 258.33 393.36 388.83 258.32 389.33 258.32"/>
      <polygon class="cls-2" points="389.83 258.32 258.33 394.41 258.33 393.89 389.33 258.32 389.83 258.32"/>
      <polygon class="cls-2" points="390.34 258.32 258.33 394.93 258.33 394.41 389.83 258.32 390.34 258.32"/>
      <polygon class="cls-2" points="390.84 258.32 258.33 395.45 258.33 394.93 390.34 258.32 390.84 258.32"/>
      <polygon class="cls-2" points="391.35 258.32 258.33 395.98 258.33 395.45 390.84 258.32 391.35 258.32"/>
      <polygon class="cls-2" points="391.85 258.32 258.33 396.5 258.33 395.98 391.35 258.32 391.85 258.32"/>
      <polygon class="cls-2" points="392.36 258.32 258.33 397.02 258.33 396.5 391.85 258.32 392.36 258.32"/>
      <polygon class="cls-2" points="392.86 258.32 258.33 397.54 258.33 397.02 392.36 258.32 392.86 258.32"/>
      <polygon class="cls-2" points="393.37 258.32 258.33 398.06 258.33 397.54 392.86 258.32 393.37 258.32"/>
      <polygon class="cls-2" points="393.87 258.32 258.33 398.59 258.33 398.06 393.37 258.32 393.87 258.32"/>
      <polygon class="cls-2" points="394.38 258.32 258.33 399.11 258.33 398.59 393.87 258.32 394.38 258.32"/>
      <polygon class="cls-2" points="394.88 258.32 258.33 399.63 258.33 399.11 394.38 258.32 394.88 258.32"/>
      <polygon class="cls-2" points="395.39 258.32 258.33 400.15 258.33 399.63 394.88 258.32 395.39 258.32"/>
      <polygon class="cls-2" points="395.89 258.32 258.33 400.68 258.33 400.15 395.39 258.32 395.89 258.32"/>
      <polygon class="cls-2" points="396.4 258.32 258.33 401.2 258.33 400.68 395.89 258.32 396.4 258.32"/>
      <polygon class="cls-2" points="396.9 258.32 258.33 401.72 258.33 401.2 396.4 258.32 396.9 258.32"/>
      <polygon class="cls-2" points="397.41 258.32 258.33 402.24 258.33 401.72 396.9 258.32 397.41 258.32"/>
      <polygon class="cls-2" points="397.91 258.32 258.33 402.77 258.33 402.24 397.41 258.32 397.91 258.32"/>
      <polygon class="cls-2" points="398.37 258.32 258.33 403.24 258.33 402.77 397.91 258.32 398.37 258.32"/>
      <polygon class="cls-2" points="398.82 258.32 258.33 403.71 258.33 403.24 398.37 258.32 398.82 258.32"/>
      <polygon class="cls-2" points="399.28 258.32 258.33 404.19 258.33 403.71 398.82 258.32 399.28 258.32"/>
      <polygon class="cls-2" points="399.74 258.32 258.33 404.66 258.33 404.19 399.28 258.32 399.74 258.32"/>
      <polygon class="cls-2" points="400.2 258.32 258.33 405.13 258.33 404.66 399.74 258.32 400.2 258.32"/>
      <polygon class="cls-2" points="400.65 258.32 258.33 405.61 258.33 405.13 400.2 258.32 400.65 258.32"/>
      <polygon class="cls-2" points="401.11 258.32 258.33 406.08 258.33 405.61 400.65 258.32 401.11 258.32"/>
      <polygon class="cls-2" points="401.57 258.32 258.33 406.55 258.33 406.08 401.11 258.32 401.57 258.32"/>
      <polygon class="cls-2" points="402.03 258.32 258.33 407.03 258.33 406.55 401.57 258.32 402.03 258.32"/>
      <polygon class="cls-2" points="402.48 258.32 258.33 407.5 258.33 407.03 402.03 258.32 402.48 258.32"/>
      <polygon class="cls-2" points="402.94 258.32 258.33 407.97 258.33 407.5 402.48 258.32 402.94 258.32"/>
      <polygon class="cls-2" points="403.4 258.32 258.33 408.45 258.33 407.97 402.94 258.32 403.4 258.32"/>
      <polygon class="cls-2" points="403.86 258.32 258.33 408.92 258.33 408.45 403.4 258.32 403.86 258.32"/>
      <polygon class="cls-2" points="404.31 258.32 258.33 409.39 258.33 408.92 403.86 258.32 404.31 258.32"/>
      <polygon class="cls-2" points="404.77 258.32 258.33 409.86 258.33 409.39 404.31 258.32 404.77 258.32"/>
      <polygon class="cls-2" points="405.23 258.32 258.33 410.34 258.33 409.86 404.77 258.32 405.23 258.32"/>
      <polygon class="cls-2" points="405.69 258.32 258.33 410.81 258.33 410.34 405.23 258.32 405.69 258.32"/>
      <polygon class="cls-2" points="406.14 258.32 258.33 411.28 258.33 410.81 405.69 258.32 406.14 258.32"/>
      <polygon class="cls-2" points="406.6 258.32 258.33 411.76 258.33 411.28 406.14 258.32 406.6 258.32"/>
      <polygon class="cls-2" points="407.06 258.32 258.33 412.23 258.33 411.76 406.6 258.32 407.06 258.32"/>
      <polygon class="cls-2" points="407.52 258.32 258.33 412.7 258.33 412.23 407.06 258.32 407.52 258.32"/>
      <polygon class="cls-2" points="407.97 258.32 258.35 413.16 258.33 413.16 258.33 412.7 407.52 258.32 407.97 258.32"/>
      <polygon class="cls-2" points="408.43 258.32 258.81 413.16 258.35 413.16 407.97 258.32 408.43 258.32"/>
      <polygon class="cls-2" points="408.89 258.32 259.26 413.16 258.81 413.16 408.43 258.32 408.89 258.32"/>
      <polygon class="cls-2" points="409.34 258.32 259.72 413.16 259.26 413.16 408.89 258.32 409.34 258.32"/>
      <polygon class="cls-2" points="409.8 258.32 260.18 413.16 259.72 413.16 409.34 258.32 409.8 258.32"/>
      <polygon class="cls-2" points="410.26 258.32 260.64 413.16 260.18 413.16 409.8 258.32 410.26 258.32"/>
      <polygon class="cls-2" points="410.72 258.32 261.09 413.16 260.64 413.16 410.26 258.32 410.72 258.32"/>
      <polygon class="cls-2" points="411.17 258.32 261.55 413.16 261.09 413.16 410.72 258.32 411.17 258.32"/>
      <polygon class="cls-2" points="411.63 258.32 262.01 413.16 261.55 413.16 411.17 258.32 411.63 258.32"/>
      <polygon class="cls-2" points="262.01 413.16 411.63 258.32 413.15 258.32 413.15 413.16 262.01 413.16"/>
    </g>
  </g>
</svg>