<?xml version="1.0" encoding="UTF-8"?>
<svg id="Layer_1" data-name="Layer 1" xmlns="http://www.w3.org/2000/svg" xmlns:xlink="http://www.w3.org/1999/xlink" viewBox="0 0 870.77 303.08">
  <defs>
    <style>
      .cls-1 {
        fill: #c4c2c2;
      }

      .cls-2 {
        fill: url(#linear-gradient);
      }
    </style>
    <linearGradient id="linear-gradient" x1="-896.38" y1="189.89" x2="-895.38" y2="189.89" gradientTransform="translate(-45293.66 -216006.83) rotate(-90) scale(241.32)" gradientUnits="userSpaceOnUse">
      <stop offset="0" stop-color="#08142e"/>
      <stop offset=".81" stop-color="#17326e"/>
      <stop offset="1" stop-color="#0d69a9"/>
    </linearGradient>
  </defs>
  <path class="cls-2" d="M530.25,100.24c0,.31,.31,.31,.31,.62,0-.31,0-.62-.31-.62Z"/>
  <path class="cls-1" d="M0,151.38c0,83.69,195.08,151.69,435.38,151.69s435.38-68,435.38-151.69C871.08,67.69,676.31,0,435.69,0S0,67.69,0,151.38m15.38,0C15.38,74.77,203.38,12.92,435.69,12.92s420.31,61.85,420.31,138.46-188,138.46-420.31,138.46S15.38,228,15.38,151.38"/>
  <g>
    <path class="cls-1" d="M689.53,94.29c-1.85,0-2.46,.31-3.38,1.85-2.77,5.23-35.38,53.85-41.23,63.38-.92,1.54-2.15,1.23-2.46-.31-.62-5.54-5.54-12-13.23-15.08-5.85-2.46-11.69-2.77-17.54-2.15-10.77,1.54-20.31,7.08-28.62,13.54-12.62,9.54-23.69,22.15-37.54,31.38-7.69,4.92-18.15,9.54-25.23,2.77-6.46-5.85-5.54-19.08,4-29.23,.92-.92,2.15-.31,2.15,.92-.92,4.62,.31,9.23,3.69,12.31,4.31,3.69,10.46,4.31,15.69,1.85,6.15-3.08,9.85-8.92,10.77-15.69,1.54-10.46-6.46-19.38-16.31-20.31-8-.62-16,2.15-23.38,8.62-3.69,3.08-5.85,5.54-9.23,10.15-.92,1.23-2.15,1.23-1.85-.31,.31-13.23-5.23-20.62-16-20.92-8.62-.31-17.54,4.31-24.62,10.15-7.69,6.15-14.46,14.46-21.85,22.15-.92,.92-1.85,.92-1.85-.92-.31-8.92-2.46-17.23-6.46-23.38-1.54-2.15-4.62-3.08-7.08-1.85-1.23,.62-5.23,2.46-8.31,4.92-1.54,1.23-2.15,3.08-1.54,5.23,4,13.23,3.08,28-2.15,40.62-4.92,11.69-14.46,21.85-25.54,25.54-7.38,2.46-15.08,1.23-19.69-5.23-6.46-8.92-4-24.62,5.85-37.85,8.62-11.38,20.92-18.77,33.23-23.38,1.54-.62,1.85-1.54,1.23-2.77-.62-2.15-1.85-4.92-2.15-6.15-1.23-3.08-4.31-3.38-8.31-3.08-8.92,.92-16.92,4-25.23,8.31-20.92,11.08-31.38,32.92-36,44.62-2.15,5.54-4,8.92-6.46,12-3.38,4.31-7.38,8-15.08,14.46-.62,.62-1.23,1.85-.62,3.08,.92,1.54,4.62,7.08,5.85,7.69s2.77-.31,3.38-.62c5.23-3.69,11.69-9.23,14.77-13.23,.92-1.23,2.15-.62,2.77,1.23,2.77,10.46,10.46,18.77,20.92,22.46,19.08,6.46,39.08-2.77,54.15-19.08,9.54-10.46,12.92-16.92,16.62-21.54,6.15-7.69,18.46-24.92,32.92-36,5.23-4,11.69-7.08,14.77-5.23,2.46,1.54,3.38,5.54-.62,12.92-14.77,27.08-36.62,59.08-40.62,66.77-.62,1.23,0,2.46,1.23,2.46h22.46c1.23,0,1.85-.62,2.15-1.54,11.38-17.85,22.15-34.77,33.54-52.31,.62-.92,1.23-.31,1.23,.31,.31,4,1.23,9.54,3.69,13.23,4.31,6.77,10.46,9.54,17.23,9.85,5.54,0,8.31-.62,14.15-3.08,4.92-1.85,8.62-4,11.69-6.15,1.85-1.23,2.15,.92,1.85,1.23-2.77,14.15,.62,31.08,14.77,37.85,16.92,8.31,35.38-3.38,46.15-13.85,.92-.92,2.15-.92,2.15,1.23,.31,4,2.15,8.92,5.23,12.31,8.92,8.92,27.08,5.54,44.92-8.62,11.69-8.92,23.69-21.54,34.77-35.08,.31-.62,.62-1.23,0-2.15-1.54-1.85-4-3.69-5.85-5.23-.62-.62-1.85-.31-2.46,0-11.38,10.77-21.23,22.77-36,32.92-4.92,3.38-12.92,6.15-16.31,1.54-1.23-1.85-1.23-4.31,0-7.69,4.31-10.77,72-113.54,75.38-119.69,.62-.92,0-1.85-1.23-1.85-7.08-.31-16.31-.31-23.38-.31m-107.08,126.46c-3.38-1.85-4.92-6.77-4.92-10.46,.31-11.08,5.23-22.46,14.15-33.54,11.08-13.54,23.38-20.62,31.38-16.92,8.31,4,5.54,13.54,1.85,21.23-.31,.62-.31,1.23,0,1.54,0,.92,1.23,1.54,2.15,1.85,.31,0,.62,.31,.31,1.23-2.77,6.15-5.54,9.85-9.23,15.08-3.38,4.92-7.08,8.92-11.69,12.62-5.23,4.31-12,8.92-18.46,8.92-1.85,0-4-.62-5.54-1.54"/>
    <path class="cls-1" d="M330.15,31.83c-6.46,0-12.92,.31-19.38,.92-41.54,3.38-80.92,26.77-81.23,62.46,0,18.15,12.92,32.62,32.62,32,23.38-.92,42.46-19.38,52.62-43.08,3.69-8.92-3.38-12.62-6.46-7.38-5.85,9.23-14.46,16.31-23.38,20.92-11.08,5.23-22.77,4-26.15-4.92-4.92-12.62,5.54-31.38,29.23-40.31,34.15-12.62,70.15-4.31,104.62,2.15,.62,0,2.46,.92,.62,1.85-6.15,3.38-12.31,6.15-21.85,14.15-6.77,5.85-15.69,13.54-22.46,21.85-6.77,8.31-11.69,15.69-18.15,24-.92,1.23-1.85,1.23-1.85,1.23-15.69,2.77-30.77,4.31-44.92,14.15-2.77,1.85-4,5.54-2.46,8.31,1.54,2.46,5.23,2.77,7.69,.92,8.62-6.46,17.54-9.54,28-9.85,.31,0,.62,0,.92,.31v.62c-15.38,21.23-19.08,26.15-30.77,39.38-5.85,6.77-11.69,12.62-18.15,18.46-26.15,24.31-54.46,24-64.62,8.62-6.15-9.23-5.23-18.77-1.23-26.77,4.92-9.85,14.77-16.92,23.08-21.23,3.08-1.54,4-5.54,.92-8.92-1.85-2.46-6.77-2.77-10.15-2.15-10.77,1.85-23.38,10.15-31.08,20-8.31,11.08-12.62,24.31-11.38,39.08,2.46,27.08,24.62,42.46,49.85,42.46,20-.31,39.08-6.15,61.54-29.23,21.23-21.54,40.62-53.54,58.46-83.38,.62-.92,.92-1.54,3.69-1.85,11.38-1.54,28-3.08,38.77-3.69,2.46,0,2.77,0,3.69,1.23,2.77,3.38,7.08,6.46,10.46,8.31,1.54,.92,2.46,1.23,3.69,1.23,1.54,0,2.77-.92,3.69-1.85,1.23-1.23,1.54-2.77,.92-4s-8-5.23-8.31-6.77c-.31-.92,.92-1.23,.92-1.23,5.54-1.85,11.08-5.23,14.77-12,3.38-6.46,4-15.38-2.15-20-5.54-4.31-13.85-3.69-20.31,2.46-6.46,5.85-8.62,14.15-7.69,21.54,0,1.23,0,1.85-1.54,1.85-9.85,.92-19.38,.92-30.15,1.54-.62,0-.92-.31-.62-.92,12.31-21.23,30.46-36.31,50.77-51.38,1.23-.92,.92-2.77,.92-4.62,36.62,8,71.69,22.77,109.54,22.46,15.69,0,30.77-2.46,44.92-10.46,12.62-6.77,17.85-13.23,18.15-19.69,.31-4.62-2.77-7.38-7.38-6.46-38.15,8.92-74.77,8.62-112.92,4-43.69-5.54-85.23-16.31-128.31-16.31m65.85,76.62c-.62-4,.62-9.54,5.23-13.23,2.15-1.85,5.23-2.46,6.77-.92,2.15,1.85,.92,6.15-.92,8.92-2.15,3.38-6.15,6.15-9.54,6.77h-.31c-.31,.31-.92,0-1.23-1.54"/>
  </g>
</svg>