<?xml version="1.0" encoding="UTF-8"?>
<svg id="Layer_1" data-name="Layer 1" xmlns="http://www.w3.org/2000/svg" viewBox="0 0 275.1 174">
  <defs>
    <style>
      .cls-1 {
        fill: #c4c2c2;
      }
    </style>
  </defs>
  <path id="svg_1" data-name="svg 1" class="cls-1" d="M31.7,146l4.2,.5c1.9,.2,2.1,1.8,2.1,2.8v4.9H18.7v-4.9c0-1,.2-2.6,2.1-2.8l4.2-.5v-4.2H0v4.2l4.2,.5c1.9,.2,2.1,1.8,2.1,2.8v16.2c0,1-.2,2.6-2.1,2.8l-4.2,.5v4.2H25v-4.2l-4.2-.5c-1.9-.2-2.1-1.8-2.1-2.8v-4.9h19.2v4.9c0,1-.2,2.6-2.1,2.8l-4.2,.5v4.2h25v-4.2l-4.2-.5c-1.9-.2-2.1-1.8-2.1-2.8v-16.2c0-1,.2-2.6,2.1-2.8l4.2-.5v-4.2H31.6v4.2h.1Z"/>
  <path id="svg_2" data-name="svg 2" class="cls-1" d="M198.2,141.8h-30.8v4.2l3.7,.4c1.3,.2,2.2,.7,2.2,2.5v16.5c0,1-.2,2.6-2.1,2.8l-4.2,.5v4.2h31.2c11.2,0,20.4-4.5,20.4-15.6s-9.2-15.5-20.4-15.5m-2.3,25.2h-10.5v-19.2h10.5c6.2,0,8.3,2.9,8.3,9.6s-2.1,9.6-8.3,9.6"/>
  <path id="svg_3" data-name="svg 3" class="cls-1" d="M271,168.3c-2-.2-2.6-1.5-3.2-2.4l-14.4-22c-1-1.6-1.8-2.1-3.3-2.1h-23.6v4.2l5.7,.6c.8,.1,1.9,1.2,1,2.6l-10.7,17.3c-.4,.7-1,1.5-2.2,1.7l-4.2,.5v4.2h19.9v-4.2l-3.4-.3c-1.5-.2-2.3-1.2-1.5-2.4l1.6-2.6h19.2l1.4,2.1c1.3,1.9-.3,2.7-1.7,2.8l-3.5,.4v4.2h27v-4.2l-4.1-.4Zm-35-10.4l5.9-9.6,6.3,9.6h-12.2Z"/>
  <path id="svg_4" data-name="svg 4" class="cls-1" d="M145.1,146l4.2,.5c1.9,.2,2.1,1.8,2.1,2.8v15.6l-16.5-21.8c-.7-1-1.4-1.3-3.2-1.3h-21.4v4.2l4.2,.5c1.9,.2,2.1,1.8,2.1,2.8v16.2c0,1-.2,2.6-2.1,2.8l-4.2,.5v4.2h20v-4.2l-4.2-.5c-1.9-.2-2.1-1.8-2.1-2.8v-15.6l16.5,21.7c.8,1,1.4,1.3,3.2,1.3h15.2v-23.7c0-1,.2-2.6,2.1-2.8l4.2-.5v-4.2h-19.9l-.2,4.3h0Z"/>
  <path id="svg_5" data-name="svg 5" class="cls-1" d="M83.4,140.7c-20.3,0-25.5,8.9-25.5,16.6s5.2,16.7,25.5,16.7,25.5-8.9,25.5-16.6-5.2-16.7-25.5-16.7m0,27.4c-7.9,0-11.1-3.3-11.1-10.7s3.3-10.7,11.1-10.7,11.1,3.3,11.1,10.7-3.2,10.7-11.1,10.7"/>
  <path id="svg_6" data-name="svg 6" class="cls-1" d="M172.1,10.3c-3.4,15.3-4.8,22.4-7.6,33.4-2.7,10.6-4.8,20.5-8.4,25.3-3.6,4.9-8.5,5.9-11.8,6.3-1.7,.2-3,.3-6.7,.3s-5-.1-6.7-.3c-3.3-.4-8.2-1.4-11.8-6.3-3.6-4.8-5.7-14.7-8.3-25.3-2.8-11.1-4.2-18.1-7.6-33.4,0,0-3.4,.1-4.9,.2-2.1,.1-3.7,.3-5.4,.5,0,0,2,31.5,2.9,44.9,.9,14,2.6,37.7,4.1,55.6,0,0,2.9,.5,7.7,.7,5,.3,7.3,.3,7.3,.3,2.1-7.9,4.6-18.8,7.5-23.5,2.4-3.8,6-4.2,8.1-4.5,3.2-.4,6-.5,7.2-.5h0c1.3,0,4,0,7.2,.5,2.1,.3,5.7,.7,8.1,4.5,2.9,4.7,5.5,15.6,7.5,23.5,0,0,2.2,0,7.2-.3,4.8-.3,7.7-.7,7.7-.7,1.5-17.9,3.2-41.5,4.1-55.6,.9-13.3,2.9-44.9,2.9-44.9-1.7-.2-3.4-.4-5.4-.5-1.5-.1-4.9-.2-4.9-.2"/>
  <path id="svg_7" data-name="svg 7" class="cls-1" d="M211.8,28.9c-2-20-15.4-24.2-27.1-26.2-5.9-1-16.4-1.8-23.1-2.1-5.9-.4-19.7-.6-23.9-.6s-18,.2-23.9,.6c-6.7,.3-17.2,1.1-23.1,2.1-11.7,2-25.1,6.2-27.1,26.2-.6,5.5-.7,12.6-.6,20.2,.2,12.7,1.3,21.2,1.9,27.2,.4,4.1,2.1,16.3,4.3,22.6,3,8.7,5.7,11.2,8.9,13.8,5.8,4.7,15.4,6.2,17.4,6.6,10.8,1.9,32.6,2.3,42.3,2.3s31.5-.3,42.3-2.3c2-.4,11.6-1.8,17.4-6.6,3.2-2.6,5.9-5.1,8.9-13.8,2.2-6.3,3.9-18.6,4.3-22.6,.6-5.9,1.7-14.5,1.9-27.2-.1-7.7-.3-14.8-.8-20.2m-7.4,33.6c-1.2,16-2.6,25.6-4.6,32.5-1.8,6.1-4,10.1-7.2,13-5.4,4.9-12.8,5.9-17.2,6.6-9.4,1.4-25.3,1.9-37.7,1.9s-28.3-.5-37.7-1.9c-4.4-.7-11.8-1.7-17.2-6.6-3.2-2.9-5.4-7-7.2-13-2-6.9-3.5-16.5-4.6-32.5-.7-9.6-.6-25.2,.5-33.6,1.5-12.6,7.7-18.9,21-21.2,6.2-1.1,14.6-1.9,22.5-2.3,6.4-.4,16.8-.6,22.7-.6,5.8-.1,16.3,.2,22.6,.6,7.9,.4,16.3,1.2,22.5,2.3,13.3,2.4,19.5,8.7,21.1,21.2,1.1,8.3,1.2,23.9,.5,33.6"/>
</svg>