<?xml version="1.0" encoding="UTF-8"?>
<svg id="Layer_1" data-name="Layer 1" xmlns="http://www.w3.org/2000/svg" viewBox="0 0 923.08 151.86">
  <defs>
    <style>
      .cls-1 {
        fill: #c4c2c2;
      }
    </style>
  </defs>
  <path class="cls-1" d="M109.25,144.13c-12.22-7.66-21.23-34.08-21.23-65.46,0-1.15,0-2.29,.03-3.42h.01c-33.99-5.33-58.56-19.97-59.18-37.27l-.1,.2c-8.32,10.34-13.07,22.29-13.07,35.02,0,37.47,41.13,68.18,93.31,70.89l.22,.04ZM0,75.93C0,34,52.18,0,116.55,0s116.55,34,116.55,75.93-52.18,75.93-116.55,75.93S0,117.86,0,75.93ZM116.55,10.96c12.43,0,22.99,18.85,26.91,45.15v-.04c24.19-3.76,41.12-12.45,41.12-22.55,0-13.56-30.46-24.53-68.03-24.53S48.52,19.97,48.52,33.52c0,10.1,16.92,18.78,41.1,22.55v.04c3.93-26.3,14.5-45.15,26.93-45.15h0Zm7.52,133.13c52.18-2.72,93.31-33.42,93.31-70.89,0-12.73-4.75-24.69-13.07-35.02l-.1-.2c-.63,17.31-25.19,31.95-59.18,37.29h.01c.02,1.12,.03,2.26,.03,3.41,0,31.39-9.01,57.81-21.23,65.46l.22-.04Zm-7.52-86.02c5.57,0,10.98-.24,16.16-.7h0c-2.58-16.86-8.84-28.75-16.15-28.75s-13.57,11.9-16.15,28.76h0c5.18,.45,10.59,.69,16.16,.69Zm0,62.44c9.36,0,16.99-19.47,17.4-43.89h.05c-5.64,.53-11.47,.81-17.44,.81s-11.81-.27-17.44-.8h.05c.4,24.41,8.03,43.87,17.39,43.87Zm478.17-44.57c0-32.05,25.98-58.03,58.03-58.03s58.04,25.98,58.04,58.03-25.98,58.03-58.04,58.03-58.03-25.98-58.03-58.03h0Zm58.03,36.75c17.9,0,32.41-16.46,32.41-36.75s-14.51-36.75-32.41-36.75-32.39,16.46-32.39,36.75,14.51,36.75,32.39,36.75Zm123.88-70.6v89.25h-24.45V42.08h-34.11V21.9h92.67v20.18h-34.11Zm63.68,64.63l-.02,.02-9.38,24.6h-28.55l45.14-109.43h30.43l45.15,109.43h-28.56l-9.38-24.6-.02-.02h-44.8Zm22.41-18.47h15.37s-15.27-40.04-15.27-40.04h-.21l-15.28,40.05h0s15.4,0,15.4,0ZM325.92,42.08v89.25h-24.45V42.08h-34.11V21.9h92.67v20.18h-34.1Zm40.36,33.86c0-32.05,25.98-58.03,58.04-58.03s58.03,25.98,58.03,58.03-25.98,58.03-58.03,58.03-58.04-25.98-58.04-58.03Zm58.04,36.75c17.89,0,32.4-16.46,32.4-36.75s-14.51-36.75-32.4-36.75-32.4,16.46-32.4,36.75,14.51,36.75,32.4,36.75Zm114.21,18.64h12.4v-41.55l42.65-67.87h-28.55l-26.5,45.99-26.5-45.99h-28.56l42.66,67.87v41.55h12.4Z"/>
</svg>