<?xml version="1.0" encoding="UTF-8"?>
<svg id="Layer_1" data-name="Layer 1" xmlns="http://www.w3.org/2000/svg" viewBox="0 0 318.96 318.33">
  <defs>
    <style>
      .cls-1 {
        fill: #c4c2c2;
      }
    </style>
  </defs>
  <path class="cls-1" d="M137.1,.77c2.47-.35,4.95-.7,7.45-.76,10.24,.18,20.49,.12,30.73-.02,31.72,3.05,62.41,15.95,86.75,36.5,23.91,20.01,41.75,47.18,50.47,77.13,7.12,24.2,8.36,50.09,3.69,74.88-4.57,24.42-14.96,47.74-30.15,67.41-14.48,18.9-33.25,34.51-54.49,45.26-23.01,11.69-48.9,17.56-74.7,17.12-30.94-.44-61.7-10.13-87.23-27.64-25.91-17.64-46.44-43.06-58.1-72.16C-.4,189.12-3.09,156.14,3.54,125.17c5.46-25.8,17.51-50.16,34.71-70.14C63.12,25.7,98.98,5.99,137.1,.77m-24.8,21.34c14.87,33.69,29.95,67.29,44.88,100.95,.73,1.22,1.1,3.35,2.98,2.95,.26-.44,.79-1.32,1.07-1.77,15.27-33.9,30.08-68.02,45.53-101.84-5.68-2.47-11.74-3.94-17.75-5.31-25.38-5.55-52.24-3.69-76.7,5.02M39.33,78.92c-.38,.8-1.44,1.66-.85,2.62,23.98,48.46,48.12,96.85,72.07,145.33,.75,1.51,1.6,2.97,2.5,4.4,.99-.85,1.98-1.76,2.43-3.02,8.97-20.66,18.01-41.3,27-61.96,.66-1.52,1.7-3.45,3.68-3.19,8.85-.08,17.7-.08,26.55,0,2.08-.33,3.13,1.69,3.81,3.28,8.43,19.39,16.91,38.76,25.36,58.13,1.1,2.37,1.79,5.12,4,6.75,2.72-4.15,4.56-8.79,6.87-13.16,22.58-45.71,45.4-91.33,67.93-137.06-.53-1.98-2.12-3.52-3.21-5.22-12.77-17.89-29.32-33.15-48.55-43.85-17.15,38.71-34.68,77.27-51.91,115.96-.66,1.36-1.23,2.84-2.34,3.91-1.45,.64-3.12,.39-4.66,.48-7.92-.1-15.86,.07-23.78-.07-1.9,.13-3.06-1.55-3.7-3.11-17.49-39.08-35.08-78.12-52.53-117.22-20.24,11.46-37.64,27.74-50.65,47M15.39,166.3c1.27,26.45,10.25,52.4,25.25,74.18,17.67,25.89,43.92,45.81,73.65,55.75,25.47,8.57,53.39,9.68,79.46,3.17,25.4-6.29,48.93-19.74,67.39-38.27,17.64-17.6,30.68-39.8,37.36-63.82,8.15-29.08,6.81-60.73-3.77-89.03-1.67,2.95-3.1,6.03-4.6,9.07-26.77,53.76-53.35,107.62-80.17,161.36-.99,2.09-3.09,4.02-5.58,3.48-2.64-.33-3.92-2.88-4.88-5.04-12.54-28.38-25.25-56.69-37.79-85.06-.58-1.25-1.48-2.33-2.32-3.42-2.3,2.87-3.43,6.41-4.94,9.7-11.97,26.84-23.84,53.72-35.86,80.53-1.5,4.43-8.14,4.3-9.58-.14-28.3-56.79-56.49-113.63-84.64-170.5-7.24,18.37-9.98,38.35-8.99,58.02h0Z"/>
</svg>